<svg xmlns="http://www.w3.org/2000/svg" xmlns:xlink="http://www.w3.org/1999/xlink" width="1080" zoomAndPan="magnify" viewBox="0 0 810 1012.49997" height="1350" preserveAspectRatio="xMidYMid meet" version="1.0"><defs><clipPath id="e44bf7bef1"><path d="M 0.199219 0 L 809.800781 0 L 809.800781 1012 L 0.199219 1012 Z M 0.199219 0 " clip-rule="nonzero"/></clipPath><clipPath id="8a2ac52365"><path d="M 42.152344 158 L 767.792969 158 L 767.792969 808 L 42.152344 808 Z M 42.152344 158 " clip-rule="nonzero"/></clipPath></defs><g clip-path="url(#e44bf7bef1)"><path fill="#ffffff" d="M 0.199219 0 L 809.800781 0 L 809.800781 1012 L 0.199219 1012 Z M 0.199219 0 " fill-opacity="1" fill-rule="nonzero"/><path fill="#ffffff" d="M 0.199219 0 L 809.800781 0 L 809.800781 1012 L 0.199219 1012 Z M 0.199219 0 " fill-opacity="1" fill-rule="nonzero"/></g><path fill="#e5ef89" d="M 321.164062 792.355469 C 317.5 790.046875 310.015625 740.246094 304.464844 681.675781 C 293.371094 564.0625 299.875 516.347656 331.65625 482.058594 C 355.648438 456.15625 399.867188 448.820312 426.597656 466.316406 C 466.625 492.550781 473.59375 514.101562 482.007812 637.425781 C 486.402344 701.738281 490.945312 761.964844 492.101562 771.242188 C 494.082031 786.914062 488.140625 788.46875 411.019531 792.363281 C 365.246094 794.703125 324.789062 794.703125 321.164062 792.363281 Z M 321.164062 792.355469 " fill-opacity="1" fill-rule="nonzero"/><path fill="#2cb5ae" d="M 247.863281 743.777344 C 232.460938 618.246094 248.132812 489.152344 283.902344 446.617188 C 313.046875 411.964844 369.242188 386.914062 417.785156 386.914062 C 453.429688 386.914062 461.96875 390.613281 486.6875 416.847656 C 502.199219 433.285156 518.664062 460.835938 523.25 478.0625 C 536.195312 526.601562 555.496094 646.136719 562.0625 718.46875 C 567.738281 780.644531 567.179688 783.90625 550.808594 783.90625 C 531.074219 783.90625 528.4375 774.832031 515.328125 661.441406 C 502.992188 554.886719 483.425781 470.667969 465.476562 447.015625 C 453.792969 431.5625 442.175781 426.847656 415.800781 426.847656 C 376.964844 426.847656 308.15625 462.332031 300.738281 486.179688 C 286.648438 531.394531 278.824219 637.457031 283.867188 714.242188 C 289.417969 797.835938 289.019531 800.800781 272.226562 800.800781 C 257.105469 800.800781 253.945312 793.453125 247.871094 743.777344 Z M 247.863281 743.777344 " fill-opacity="1" fill-rule="nonzero"/><path fill="#4ad3cc" d="M 114.347656 770.472656 C 99.167969 734.148438 106.988281 714.210938 143.949219 695.109375 C 175.4375 678.804688 175.402344 669.933594 143.6875 640.324219 C 110.488281 609.300781 110.65625 585.511719 144.179688 573.835938 L 170.019531 564.855469 L 148.402344 533.039062 C 118.074219 488.425781 120.457031 473.777344 160.585938 457.734375 C 179.160156 450.273438 194.375 443.179688 194.375 441.929688 C 194.375 440.679688 184.441406 417.9375 172.292969 391.433594 C 146.324219 334.644531 151.511719 324.347656 203.484375 329.300781 L 239.386719 332.730469 L 260.507812 283.789062 C 285.488281 225.910156 299.25 222.371094 343.046875 262.476562 L 373.171875 290.101562 L 407.65625 258.25 C 460.21875 209.742188 490.023438 216.863281 490.023438 277.953125 L 490.023438 302.796875 L 523.480469 285.707031 C 561.832031 266.167969 596.089844 263.566406 602.292969 279.792969 C 604.664062 285.902344 603.3125 307.78125 599.351562 328.371094 C 587.835938 387.96875 587.972656 388.300781 620.867188 382.167969 C 660.667969 374.671875 666.050781 391.433594 643.113281 451.363281 C 633.246094 477.140625 625.160156 499.773438 625.160156 501.691406 C 625.160156 503.609375 636.707031 505.152344 650.765625 505.152344 C 685.058594 505.152344 690.859375 524.363281 668.59375 564.035156 C 646.507812 603.269531 646.347656 606.53125 666.378906 606.53125 C 675.089844 606.53125 687.101562 612.410156 693.039062 619.566406 C 701.988281 630.363281 700.796875 636.699219 686.046875 656.695312 L 668.195312 680.78125 L 685.910156 685.433594 C 701.714844 689.566406 703.042969 694.246094 698.253906 729.230469 C 691.6875 777.179688 687.792969 783.90625 666.910156 783.90625 C 653.867188 783.90625 650.503906 778 650.503906 754.902344 C 650.503906 729.59375 647.597656 725.5625 627.375 723.257812 C 597.375 719.792969 592.585938 695.566406 616.847656 669.765625 L 635.355469 650.0625 L 611.261719 647.292969 C 579.027344 643.625 576.1875 618.8125 603.449219 578.6875 C 615.125 561.484375 623.84375 547.097656 622.820312 546.769531 C 621.796875 546.40625 613.804688 544.757812 605.0625 543.109375 C 573.972656 537.265625 571.074219 524.886719 589.417969 476.972656 L 606.945312 431.097656 L 582.386719 440.375 C 544.203125 454.792969 536.023438 440.871094 547.902344 381.703125 C 553.226562 355.140625 556.292969 332.105469 554.667969 330.488281 C 553.054688 328.867188 536.980469 339.300781 518.933594 353.65625 L 486.128906 379.726562 L 471.175781 361.273438 C 462.964844 351.113281 456.222656 331.839844 456.222656 318.410156 C 456.222656 304.976562 452.703125 293.996094 448.375 293.996094 C 438.441406 293.996094 416.5 315.800781 405.207031 336.886719 C 392.839844 359.992188 384.617188 357.550781 342.015625 318.273438 L 304.234375 283.425781 L 291.328125 316.164062 C 270.605469 368.835938 265.585938 374.242188 237.671875 374.148438 C 206.449219 374.082031 206.355469 374.511719 228.660156 411.109375 C 251.925781 449.253906 247.304688 471.996094 213.976562 483.339844 C 173.984375 497.011719 172.824219 501.859375 201.703125 534.753906 C 216.257812 551.324219 228.167969 568.617188 228.167969 573.167969 C 228.167969 577.730469 216.585938 588.484375 202.429688 597.09375 L 176.6875 612.738281 L 198.828125 639.039062 C 228.398438 674.183594 223.878906 699.195312 184.042969 720.519531 C 154.375 736.386719 152.898438 739.132812 157.679688 769.097656 C 162.199219 797.339844 160.8125 800.800781 144.871094 800.800781 C 132.367188 800.800781 123.226562 791.730469 114.347656 770.472656 Z M 114.347656 770.472656 " fill-opacity="1" fill-rule="nonzero"/><g clip-path="url(#8a2ac52365)"><path fill="#ead2ac" d="M 48.25 803.910156 C 45.015625 800.675781 42.40625 723.554688 42.472656 632.566406 C 42.707031 378.316406 63.523438 311.640625 167.285156 233.066406 C 255.886719 166.015625 365.519531 144.191406 494.511719 168.058594 C 656.34375 197.964844 753.199219 374.773438 763.597656 659.332031 L 767.855469 775.457031 L 726.527344 775.457031 L 726.425781 667.777344 C 726.300781 496.148438 686.332031 361.242188 610.628906 276.863281 C 557.703125 217.917969 506.480469 198.582031 401.3125 197.789062 C 305.089844 197.105469 249.476562 214 184.367188 263.691406 C 95.433594 331.613281 74.964844 405.535156 76.621094 652.996094 C 77.414062 776.515625 75.402344 805.492188 65.890625 807.441406 C 59.425781 808.761719 51.511719 807.171875 48.234375 803.910156 Z M 48.25 803.910156 " fill-opacity="1" fill-rule="nonzero"/></g></svg>