<svg xmlns="http://www.w3.org/2000/svg" xmlns:xlink="http://www.w3.org/1999/xlink" width="1080" zoomAndPan="magnify" viewBox="0 0 810 1012.49997" height="1350" preserveAspectRatio="xMidYMid meet" version="1.0"><defs><clipPath id="6572ddebe2"><path d="M 0.199219 0 L 809.800781 0 L 809.800781 1012 L 0.199219 1012 Z M 0.199219 0 " clip-rule="nonzero"/></clipPath></defs><g clip-path="url(#6572ddebe2)"><path fill="#ffffff" d="M 0.199219 0 L 809.800781 0 L 809.800781 1012 L 0.199219 1012 Z M 0.199219 0 " fill-opacity="1" fill-rule="nonzero"/><path fill="#ffffff" d="M 0.199219 0 L 809.800781 0 L 809.800781 1012 L 0.199219 1012 Z M 0.199219 0 " fill-opacity="1" fill-rule="nonzero"/></g><path fill="#ad8fb7" d="M 117.027344 874.222656 C 94.21875 871.464844 83.640625 865.363281 78.773438 852.222656 C 64.238281 812.902344 41.886719 586.832031 41.269531 472.824219 C 40.652344 358.78125 41.789062 349.890625 62.941406 304.761719 C 102.230469 220.957031 152.292969 170.863281 243.007812 124.566406 C 289.078125 101.078125 366.425781 100.914062 396.078125 124.210938 C 418.011719 141.46875 451.6875 218.234375 451.71875 251 C 451.71875 266.800781 457.171875 263.71875 491.140625 228.648438 C 557.8125 159.867188 652.644531 129.402344 699.042969 161.910156 C 725.839844 180.695312 739.433594 211.679688 755.460938 290.714844 C 767.433594 349.859375 768.957031 392.878906 765.195312 568.339844 C 760.394531 791.003906 756.207031 814.394531 718.441406 828.800781 C 706.472656 833.34375 646.222656 841.386719 584.578125 846.644531 C 522.902344 851.898438 446.300781 859.492188 414.34375 863.515625 C 340.890625 872.695312 158.652344 879.28125 117.027344 874.222656 Z M 117.027344 874.222656 " fill-opacity="1" fill-rule="nonzero"/></svg>