<svg xmlns="http://www.w3.org/2000/svg" xmlns:xlink="http://www.w3.org/1999/xlink" width="1080" zoomAndPan="magnify" viewBox="0 0 810 1012.49997" height="1350" preserveAspectRatio="xMidYMid meet" version="1.0"><defs><clipPath id="4b2e99a5ae"><path d="M 0.199219 0 L 809.800781 0 L 809.800781 1012 L 0.199219 1012 Z M 0.199219 0 " clip-rule="nonzero"/></clipPath><clipPath id="63d0775276"><path d="M 94.585938 232.644531 L 715.277344 232.644531 L 715.277344 779.125 L 94.585938 779.125 Z M 94.585938 232.644531 " clip-rule="nonzero"/></clipPath></defs><g clip-path="url(#4b2e99a5ae)"><path fill="#ffffff" d="M 0.199219 0 L 809.800781 0 L 809.800781 1012 L 0.199219 1012 Z M 0.199219 0 " fill-opacity="1" fill-rule="nonzero"/><path fill="#ffffff" d="M 0.199219 0 L 809.800781 0 L 809.800781 1012 L 0.199219 1012 Z M 0.199219 0 " fill-opacity="1" fill-rule="nonzero"/></g><g clip-path="url(#63d0775276)"><path fill="#e5ef89" d="M 424.625 232.695312 L 430.058594 238.773438 C 445.382812 255.914062 446.878906 258.652344 457.417969 288.851562 C 466.457031 314.742188 468.015625 326.746094 465.398438 350.21875 C 462.828125 373.265625 452.410156 395.878906 437.199219 411.425781 C 426.546875 422.308594 401.703125 436.867188 383.199219 443.066406 C 366.542969 448.648438 356.703125 450.199219 322.203125 452.691406 C 266.382812 456.722656 243.359375 462.996094 219.511719 480.667969 C 204.457031 491.824219 195.246094 504.15625 174.378906 541.074219 C 152.921875 579.035156 139.472656 591.914062 108.40625 604.238281 L 95.105469 609.515625 L 94.847656 673.988281 L 94.585938 738.457031 L 102.972656 736.09375 C 138.140625 726.171875 163.253906 707.640625 210.273438 656.910156 C 233.609375 631.730469 269.175781 595.261719 281.476562 583.902344 C 299.074219 567.648438 321.894531 554.234375 340.359375 549.292969 C 366.425781 542.316406 389.007812 543.164062 451.246094 553.441406 C 466.03125 555.882812 470.828125 556.214844 491.886719 556.265625 C 511.515625 556.308594 517.304688 555.980469 524.402344 554.429688 C 561.855469 546.25 593.515625 526.867188 617.160156 497.640625 C 633.808594 477.058594 641.242188 463.84375 648.320312 442.25 C 659.675781 407.59375 663.175781 374.246094 658.574219 344.464844 C 652.398438 304.476562 640.457031 271.039062 621.648438 241.078125 L 616.386719 232.695312 Z M 672.523438 232.765625 C 669.734375 232.667969 666.050781 232.839844 660.90625 232.921875 L 643.519531 233.203125 L 648.082031 240.824219 C 654.503906 251.558594 665.832031 275.210938 669.734375 286.039062 C 673.792969 297.304688 675.953125 300.464844 681.285156 302.949219 C 691.453125 307.6875 702.398438 300.058594 702.382812 288.246094 C 702.375 282.578125 696.515625 266.65625 688.480469 250.476562 C 681.171875 235.753906 680.886719 233.054688 672.523438 232.765625 Z M 691.199219 324.390625 C 686.273438 324.121094 681.152344 326.46875 678.53125 331.007812 C 676.070312 335.269531 676.183594 341.757812 678.886719 351.578125 C 680.984375 359.195312 683.820312 393.386719 683.902344 412.03125 C 683.921875 416.503906 684.410156 421.859375 684.984375 423.929688 C 686.265625 428.535156 691.066406 433.53125 695.425781 434.792969 C 699.796875 436.054688 699.445312 436.058594 703.335938 434.753906 C 711.953125 431.867188 715.375 425.277344 715.398438 411.523438 C 715.417969 399.15625 712.75 368.710938 710.851562 359.691406 C 707.992188 346.101562 702.449219 330.839844 699.261719 327.785156 C 697.035156 325.652344 694.152344 324.550781 691.199219 324.390625 Z M 680.433594 455.894531 C 674.015625 455.894531 670.367188 458.988281 666.230469 467.941406 C 660.808594 479.683594 650.863281 493.441406 640.035156 504.191406 C 634.574219 509.613281 629.1875 515.554688 628.0625 517.398438 C 623.964844 524.125 626.492188 533.398438 633.382812 536.929688 C 637.664062 539.121094 645.558594 538.46875 651.539062 535.433594 C 661.804688 530.21875 676.800781 511.03125 687.648438 489.230469 C 692.234375 480.019531 693.53125 476.34375 693.824219 471.726562 C 694.433594 462.25 689.054688 455.894531 680.433594 455.894531 Z M 589.464844 550.828125 C 586.839844 550.96875 584.144531 551.640625 581.957031 552.8125 C 579.820312 553.957031 573.097656 556.019531 567.019531 557.390625 C 541.996094 563.039062 534.269531 566.9375 530.96875 575.585938 C 528.054688 583.214844 531.019531 590.9375 538.035156 593.992188 C 542.320312 595.859375 546.339844 595.699219 552.34375 593.429688 C 555.140625 592.375 564.609375 589.167969 573.390625 586.308594 C 595.609375 579.070312 603.65625 573.121094 603.65625 563.9375 C 603.65625 559.589844 600.257812 553.921875 596.515625 552.027344 C 594.632812 551.074219 592.085938 550.6875 589.464844 550.828125 Z M 379.328125 562.027344 C 375.25 561.960938 370.007812 562.425781 362.84375 563.410156 C 348.484375 565.386719 345.5625 566.359375 341.550781 570.5 C 338.71875 573.417969 338.054688 574.96875 337.726562 579.398438 C 337.222656 586.238281 339.800781 590.695312 345.847656 593.441406 C 351.199219 595.871094 349.851562 595.910156 364.675781 592.894531 C 371.550781 591.5 379.597656 590.355469 382.5625 590.355469 C 399.292969 590.355469 403.945312 570.695312 388.835938 563.832031 C 386.324219 562.691406 383.40625 562.09375 379.328125 562.027344 Z M 431.546875 565.152344 C 425.597656 565 421.484375 567.597656 418.578125 573.066406 C 416.109375 577.710938 416.207031 580.820312 418.984375 586.320312 C 421.980469 592.25 426.097656 594.84375 438.488281 598.589844 C 444.105469 600.292969 453.503906 603.199219 459.375 605.058594 C 465.390625 606.960938 472.417969 608.476562 475.496094 608.539062 C 480.539062 608.636719 481.246094 608.347656 484.894531 604.699219 C 488.433594 601.160156 488.839844 600.230469 488.839844 595.632812 C 488.839844 586.742188 482.648438 582.082031 460.898438 574.59375 C 456.425781 573.054688 448.992188 570.253906 444.375 568.375 C 439.34375 566.324219 435.113281 565.242188 431.546875 565.152344 Z M 311.253906 589.847656 C 304.648438 589.847656 303.910156 590.085938 299.238281 593.722656 C 292.132812 599.25 274.597656 615.601562 272.753906 618.414062 C 270.433594 621.949219 269.4375 627.617188 270.472656 631.359375 C 271.566406 635.324219 276.078125 639.894531 280.140625 641.152344 C 283.960938 642.335938 289.414062 641.476562 293.242188 639.085938 C 294.921875 638.039062 300.359375 632.785156 305.328125 627.40625 C 310.300781 622.023438 316.160156 616.4375 318.351562 614.988281 C 323.300781 611.710938 325.25 608.0625 325.25 602.078125 C 325.25 598.210938 324.671875 596.804688 321.773438 593.644531 C 318.398438 589.960938 318.085938 589.847656 311.253906 589.847656 Z M 251.261719 650.8125 C 243.855469 650.8125 243.851562 650.816406 230.636719 667.316406 C 219.710938 680.960938 217.765625 685.234375 219.523438 691.757812 C 220.722656 696.21875 225.09375 700.816406 229.335938 702.085938 C 233.511719 703.335938 233.855469 703.304688 238.382812 701.246094 C 243.417969 698.960938 246.496094 695.496094 256.121094 681.28125 C 262.910156 671.257812 263.722656 669.53125 264.097656 664.386719 C 264.488281 658.984375 264.304688 658.425781 260.921875 654.734375 C 257.519531 651.023438 257.003906 650.8125 251.261719 650.8125 Z M 197.515625 706.261719 C 193.3125 706.679688 187.550781 710.070312 175.871094 717.886719 C 166.878906 723.902344 158.34375 730.363281 156.90625 732.246094 C 150.683594 740.410156 153.972656 752.058594 163.328125 754.964844 C 166.828125 756.050781 172.160156 755.34375 176.359375 753.242188 C 181.46875 750.683594 201.648438 735.070312 206.125 730.214844 C 211.34375 724.554688 212.410156 720 209.777344 714.628906 C 208.738281 712.515625 206.292969 709.714844 204.335938 708.398438 C 201.996094 706.824219 200.035156 706.007812 197.515625 706.261719 Z M 117.484375 747.566406 C 115.777344 747.65625 113.863281 747.9375 111.667969 748.398438 C 107.796875 749.214844 102.371094 749.882812 99.613281 749.882812 L 94.597656 749.882812 L 94.597656 779.347656 L 97.707031 779.347656 C 99.417969 779.347656 104.101562 778.839844 108.121094 778.21875 C 124.613281 775.667969 132.195312 770.265625 132.195312 761.058594 C 132.195312 756.910156 131.65625 755.433594 129.0625 752.480469 C 125.820312 748.789062 122.597656 747.300781 117.484375 747.566406 Z M 117.484375 747.566406 " fill-opacity="1" fill-rule="nonzero"/></g></svg>