<svg xmlns="http://www.w3.org/2000/svg" xmlns:xlink="http://www.w3.org/1999/xlink" width="1080" zoomAndPan="magnify" viewBox="0 0 810 1012.49997" height="1350" preserveAspectRatio="xMidYMid meet" version="1.0"><defs><clipPath id="f3eb58d091"><path d="M 0.199219 0 L 809.800781 0 L 809.800781 1012 L 0.199219 1012 Z M 0.199219 0 " clip-rule="nonzero"/></clipPath><clipPath id="215f3e3eaf"><path d="M 52 142.101562 L 785 142.101562 L 785 855 L 52 855 Z M 52 142.101562 " clip-rule="nonzero"/></clipPath></defs><g clip-path="url(#f3eb58d091)"><path fill="#ffffff" d="M 0.199219 0 L 809.800781 0 L 809.800781 1012 L 0.199219 1012 Z M 0.199219 0 " fill-opacity="1" fill-rule="nonzero"/><path fill="#ffffff" d="M 0.199219 0 L 809.800781 0 L 809.800781 1012 L 0.199219 1012 Z M 0.199219 0 " fill-opacity="1" fill-rule="nonzero"/></g><g clip-path="url(#215f3e3eaf)"><path fill="#4ad3cc" d="M 291.3125 844.125 C 185.792969 814.699219 126.097656 769.703125 84.925781 688.613281 C 23.019531 566.609375 49.460938 436.039062 164.769531 294.457031 C 216.066406 231.46875 247.277344 205.847656 312.535156 173.019531 C 370.273438 143.996094 377.222656 142.265625 435.984375 142.265625 C 487.90625 142.265625 504.335938 145.273438 534.609375 160.425781 C 572.230469 179.234375 603.242188 220.460938 603.46875 252.039062 C 603.667969 275.332031 627.898438 301.523438 687.507812 342.71875 C 734.011719 374.867188 744.707031 386.5 764.144531 425.964844 C 784.714844 467.757812 786.5 476.949219 784.117188 528.929688 C 781.933594 577.050781 777.308594 594.527344 754.753906 640.125 C 722.746094 704.785156 700.105469 727.710938 616.578125 779.972656 C 513.441406 844.519531 384.117188 870.027344 291.3125 844.125 Z M 291.3125 844.125 " fill-opacity="1" fill-rule="nonzero"/></g></svg>