<svg xmlns="http://www.w3.org/2000/svg" xmlns:xlink="http://www.w3.org/1999/xlink" width="1080" zoomAndPan="magnify" viewBox="0 0 810 1012.49997" height="1350" preserveAspectRatio="xMidYMid meet" version="1.0"><defs><clipPath id="9754682eb0"><path d="M 0.199219 0 L 809.800781 0 L 809.800781 1012 L 0.199219 1012 Z M 0.199219 0 " clip-rule="nonzero"/></clipPath></defs><g clip-path="url(#9754682eb0)"><path fill="#ffffff" d="M 0.199219 0 L 809.800781 0 L 809.800781 1012 L 0.199219 1012 Z M 0.199219 0 " fill-opacity="1" fill-rule="nonzero"/><path fill="#ffffff" d="M 0.199219 0 L 809.800781 0 L 809.800781 1012 L 0.199219 1012 Z M 0.199219 0 " fill-opacity="1" fill-rule="nonzero"/></g><path fill="#e5ef89" d="M 355.398438 170.359375 C 288.15625 162.730469 214.472656 167.503906 154.375 202.289062 C 93.808594 237.054688 49.164062 300.394531 37.011719 368.453125 C 24.878906 436.507812 45.496094 504.410156 54.308594 588.1875 L 54.308594 588.109375 C 58.460938 630.019531 59.976562 677.015625 66.421875 719.195312 C 72.867188 761.359375 83.871094 799.714844 111.4375 822.621094 C 139.214844 845.699219 178.445312 849.039062 220.761719 846.613281 C 263.078125 844.1875 309.566406 835.546875 353.496094 830.382812 C 441.332031 820.078125 523.675781 823.667969 593.671875 788.921875 C 663.710938 754.175781 716.292969 682.449219 745.976562 601.660156 C 776.121094 520.890625 784.71875 429.152344 746.148438 361.035156 L 746.148438 360.957031 C 707.054688 292.960938 625.332031 254.992188 554.714844 226.4375 L 554.714844 226.398438 L 552.460938 225.488281 L 552.113281 225.488281 C 483.085938 197.050781 421.824219 177.890625 355.59375 170.359375 Z M 352.582031 195.070312 C 416.71875 202.347656 476.078125 220.789062 545.085938 249.382812 L 545.320312 249.480469 C 614.832031 277.585938 691.039062 315.128906 724.507812 373.34375 C 757.445312 431.5 751.117188 516.65625 722.621094 592.964844 L 722.621094 593.042969 C 694.613281 669.328125 644.765625 735.792969 582.589844 766.65625 C 520.355469 797.539062 440.671875 795.132812 350.546875 805.691406 C 305.492188 810.992188 259.234375 819.515625 219.285156 821.804688 C 179.335938 824.09375 146.765625 819.726562 127.296875 803.539062 L 127.296875 803.5 C 108.15625 787.621094 97.03125 755.4375 90.917969 715.46875 C 84.824219 675.5 83.289062 628.777344 79 585.664062 L 79 585.585938 C 69.914062 499.363281 50.757812 433.035156 61.492188 372.820312 C 72.226562 312.625 113.027344 254.679688 166.777344 223.835938 L 166.777344 223.796875 C 220.023438 192.972656 288.507812 187.789062 352.507812 195.070312 Z M 352.582031 195.070312 " fill-opacity="1" fill-rule="nonzero"/></svg>