<svg xmlns="http://www.w3.org/2000/svg" xmlns:xlink="http://www.w3.org/1999/xlink" width="1080" zoomAndPan="magnify" viewBox="0 0 810 1012.49997" height="1350" preserveAspectRatio="xMidYMid meet" version="1.0"><defs><clipPath id="6a11e89931"><path d="M 0.199219 0 L 809.800781 0 L 809.800781 1012 L 0.199219 1012 Z M 0.199219 0 " clip-rule="nonzero"/></clipPath></defs><g clip-path="url(#6a11e89931)"><path fill="#ffffff" d="M 0.199219 0 L 809.800781 0 L 809.800781 1012 L 0.199219 1012 Z M 0.199219 0 " fill-opacity="1" fill-rule="nonzero"/><path fill="#ffffff" d="M 0.199219 0 L 809.800781 0 L 809.800781 1012 L 0.199219 1012 Z M 0.199219 0 " fill-opacity="1" fill-rule="nonzero"/></g><path fill="#e5ef89" d="M 199.746094 835.617188 C 128.402344 813 92.324219 778.464844 70.550781 711.921875 C 51.023438 652.335938 50.859375 576.335938 70.082031 496.824219 C 87.78125 423.539062 96.632812 407.199219 153.246094 343.070312 C 188.902344 302.703125 209.601562 284.933594 238.046875 270.183594 C 275.417969 250.84375 276.351562 250.703125 363.566406 250.445312 C 456.378906 250.164062 494.027344 242.765625 505.382812 222.558594 C 508.683594 216.707031 521.46875 201.441406 533.828125 188.679688 C 556.238281 165.476562 556.332031 165.453125 597.421875 167.773438 C 629.285156 169.574219 643.941406 173.648438 662.464844 185.917969 C 690.511719 204.484375 718.820312 244.964844 736.636719 292.027344 C 759.464844 352.316406 745.769531 434.3125 703.53125 490.433594 C 678.78125 523.304688 614.839844 575.773438 568.832031 601.015625 C 515.355469 630.328125 499.621094 646.015625 451.554688 718.011719 C 408.472656 782.492188 371.175781 820.609375 337.25 834.773438 C 310.371094 846.011719 233.972656 846.480469 199.746094 835.617188 Z M 332.078125 805.742188 C 365.488281 790.195312 383.585938 770.128906 442.191406 683.664062 C 485.667969 619.488281 497.046875 608.882812 558.90625 574.933594 C 622.050781 540.28125 682.011719 482.542969 702.6875 436.464844 C 734.878906 364.703125 720.316406 283.527344 664.96875 226.632812 C 618.890625 179.222656 567.359375 179.433594 535.796875 227.125 C 508.261719 268.730469 500.628906 271.121094 382.929688 274.867188 C 280.917969 278.097656 276.65625 278.753906 245.585938 295.703125 C 211.03125 314.550781 130.277344 403.992188 115.175781 440.140625 C 95.132812 488.089844 81.742188 570.53125 84.410156 629.601562 C 86.726562 681.042969 89.398438 692.605469 107.425781 728.476562 C 123.886719 761.253906 133.414062 772.515625 156.804688 786.777344 C 211.425781 820.046875 284.382812 827.960938 332.078125 805.742188 Z M 157.554688 758.46875 C 125.804688 726.699219 111.898438 683.453125 111.21875 614.289062 C 110.703125 563.4375 123.628906 516.023438 156.054688 449.601562 C 174.175781 412.488281 224.210938 363.601562 263.804688 344.332031 C 294.964844 329.160156 296.183594 329.042969 322.59375 338.597656 C 389.347656 362.757812 469.675781 343.675781 541.367188 286.644531 C 601.960938 238.433594 637.386719 240.121094 664.125 292.496094 C 679.296875 322.253906 680.164062 375.238281 665.953125 405.605469 C 650.78125 437.988281 594.609375 490.832031 550.828125 513.894531 C 504.140625 538.476562 448.722656 592.65625 407 654.492188 C 342.730469 749.734375 292.625 784.175781 218.429688 784.105469 C 184.921875 784.082031 181.902344 782.820312 157.554688 758.46875 Z M 296.488281 738.777344 C 317.605469 725.855469 340.316406 701.222656 379.230469 649.128906 C 446.871094 558.566406 482.835938 523.257812 542.515625 488.839844 C 590.488281 461.167969 625.796875 428.222656 642.890625 395.1875 C 655.90625 370.019531 654.808594 323.941406 640.617188 300.691406 C 619.6875 266.367188 601.613281 268.425781 550.335938 310.945312 C 517.464844 338.199219 486.277344 354.214844 439.800781 367.722656 C 402.714844 378.515625 365.605469 377.207031 313.671875 363.320312 C 287.800781 356.414062 286.328125 356.789062 253.757812 379.21875 C 218.800781 403.3125 193.609375 431.40625 175.839844 466.105469 C 125.125 565.167969 123.300781 683.921875 171.671875 737.46875 C 193.070312 761.136719 193.585938 761.324219 230.320312 758.984375 C 258.160156 757.226562 274.621094 752.195312 296.488281 738.777344 Z M 184.945312 709.371094 C 172.445312 696.074219 170.78125 687.410156 168.089844 622.507812 C 165.675781 563.507812 167.035156 545.21875 175.582031 521.898438 C 192.882812 474.722656 220.628906 438.429688 252.800781 420.941406 C 279.210938 406.542969 288.832031 404.878906 351.765625 403.851562 L 421.46875 402.703125 L 475.320312 374.042969 C 521.1875 349.648438 532.707031 345.878906 553.027344 348.59375 C 580.5625 352.292969 592.269531 365.101562 592.269531 391.511719 C 592.269531 425.390625 544.71875 472.847656 477.027344 506.519531 C 423.738281 533.023438 396.582031 554.75 379.300781 584.648438 C 355.394531 626.042969 300.070312 687.550781 269.070312 707.195312 C 234.605469 729.0625 204.167969 729.835938 184.945312 709.371094 Z M 284.148438 656.878906 C 305.035156 637.328125 334.136719 603.097656 348.816406 580.808594 C 379.300781 534.542969 401.261719 514.269531 444.8125 492.257812 C 487.871094 470.484375 541.929688 432.953125 552.980469 417.195312 C 558.109375 409.867188 562.324219 397.714844 562.324219 390.199219 C 562.324219 368.214844 533.503906 372.945312 472.042969 405.019531 L 417.511719 433.492188 L 349.988281 433.585938 C 286.796875 433.679688 280.894531 434.707031 258.066406 449.808594 C 240.390625 461.515625 228.261719 476.96875 213.980469 506.027344 C 195.4375 543.675781 194.289062 549.714844 194.734375 607.054688 C 195.296875 675.796875 198.832031 692.445312 213.511719 695.605469 C 232.734375 699.75 246.195312 692.351562 284.148438 656.855469 Z M 217.351562 668.445312 C 215.710938 664.160156 216.648438 626.699219 219.433594 585.164062 C 225.265625 498.582031 231.609375 483.785156 270.617188 466.082031 C 306.367188 449.855469 337.625 450.980469 355.816406 469.171875 C 377.851562 491.207031 374.710938 510.429688 343.667969 543.628906 C 328.914062 559.410156 310.300781 587.105469 302.316406 605.136719 C 281.597656 651.960938 259.660156 676.21875 237.976562 676.21875 C 228.261719 676.21875 218.988281 672.707031 217.351562 668.445312 Z M 277.640625 593.941406 C 290.820312 567.230469 309.0625 539.53125 318.144531 532.414062 C 353.382812 504.785156 350.972656 480.878906 313.207031 483.433594 C 280.519531 485.632812 258.558594 499.28125 251.628906 521.785156 C 242.730469 550.628906 239.289062 647.023438 247.25 644.515625 C 250.785156 643.414062 264.457031 620.65625 277.640625 593.941406 Z M 277.640625 593.941406 " fill-opacity="1" fill-rule="nonzero"/></svg>