<svg xmlns="http://www.w3.org/2000/svg" xmlns:xlink="http://www.w3.org/1999/xlink" width="1080" zoomAndPan="magnify" viewBox="0 0 810 1012.49997" height="1350" preserveAspectRatio="xMidYMid meet" version="1.0"><defs><clipPath id="def5627c2a"><path d="M 0.199219 0 L 809.800781 0 L 809.800781 1012 L 0.199219 1012 Z M 0.199219 0 " clip-rule="nonzero"/></clipPath></defs><g clip-path="url(#def5627c2a)"><path fill="#ffffff" d="M 0.199219 0 L 809.800781 0 L 809.800781 1012 L 0.199219 1012 Z M 0.199219 0 " fill-opacity="1" fill-rule="nonzero"/><path fill="#ffffff" d="M 0.199219 0 L 809.800781 0 L 809.800781 1012 L 0.199219 1012 Z M 0.199219 0 " fill-opacity="1" fill-rule="nonzero"/></g><path fill="#ad8fb7" d="M 222.707031 835.453125 C 158.128906 814.800781 111.625 763.199219 109.808594 710.144531 C 109.347656 696.476562 112.929688 661.230469 117.792969 631.796875 C 126.164062 580.992188 125.882812 576.179688 112.058594 536.789062 C 83.648438 455.886719 81.933594 443.34375 94.605469 410.121094 C 110.449219 368.660156 167.753906 308.714844 216.253906 282.863281 C 253.0625 263.257812 263.246094 261.082031 344.152344 255.707031 C 442.128906 249.183594 497.285156 232.339844 533.730469 197.8125 C 562.601562 170.453125 594.390625 156.070312 614.867188 161.109375 C 673.582031 175.546875 718.269531 230.726562 725.105469 297.273438 C 727.996094 325.351562 724.949219 340.992188 708.339844 383.9375 C 663.496094 499.855469 599.304688 583.960938 511.3125 641.957031 C 466.957031 671.1875 444.636719 692.226562 402.609375 744.261719 C 330.585938 833.457031 286.460938 855.828125 222.707031 835.453125 Z M 310.957031 794.117188 C 321.679688 788.027344 343.230469 766.960938 358.84375 747.28125 C 423.292969 666.09375 447.835938 641.90625 491.730469 616.261719 C 555.078125 579.277344 613.382812 509.964844 656.867188 420.050781 C 698.816406 333.285156 702.785156 302.90625 678.597656 253.480469 C 664.625 224.917969 655.359375 215.011719 632.246094 203.828125 C 599.585938 188.011719 588.554688 190.851562 553.390625 224.074219 C 531.171875 245.0625 466.164062 273.625 427.976562 279.152344 C 414.152344 281.175781 371.691406 285.347656 333.582031 288.46875 C 253.523438 294.996094 217.125 309.839844 171.695312 354.53125 C 142.976562 382.761719 117.894531 424.121094 117.894531 443.214844 C 117.894531 449.078125 127.3125 481.785156 138.855469 515.878906 L 159.820312 577.871094 L 148.738281 642.214844 C 135.480469 719.074219 141.390625 745.769531 178.246094 775.613281 C 224.085938 812.726562 267.597656 818.792969 310.957031 794.117188 Z M 204.304688 765.246094 C 184.289062 743.953125 180.578125 716.082031 189.816406 656.699219 C 197.109375 609.785156 196.574219 600.035156 184.082031 550.558594 C 160.230469 456.269531 167.703125 405.695312 210.265625 373.316406 C 261.761719 334.183594 271.308594 331.726562 375.046875 331.058594 L 471.691406 330.417969 L 506.0625 307.101562 C 582.71875 255.144531 608.75 251.28125 633.601562 288.265625 C 679.441406 356.527344 622.390625 468.296875 513.4375 523.683594 C 464.703125 548.460938 444.304688 569.960938 381.496094 662.613281 C 321.550781 751.070312 287.945312 780.296875 246.277344 780.296875 C 225.699219 780.296875 214.746094 776.355469 204.304688 765.246094 Z M 267.90625 744.59375 C 292.449219 731.921875 319.25 700.519531 367.621094 627.832031 C 421.167969 547.335938 446.839844 521.355469 499.050781 494.890625 C 571.816406 457.957031 615.789062 401.929688 615.789062 346.136719 C 615.789062 330.472656 611.695312 312.042969 606.675781 305.183594 C 598.613281 294.152344 595.414062 293.71875 578.832031 301.191406 C 568.542969 305.847656 545.351562 319.261719 527.332031 330.984375 C 480.980469 361.183594 478.011719 361.824219 383.3125 361.441406 C 304.789062 361.109375 295.34375 362.414062 263.8125 377.820312 C 244.972656 387.035156 223.601562 402.160156 216.308594 411.425781 C 198.542969 434.027344 198.851562 479.996094 217.253906 550.148438 C 230.230469 599.496094 230.871094 609.480469 223.910156 650.175781 C 212.648438 715.851562 213.824219 732.050781 230.714844 743.902344 C 248.324219 756.214844 245.535156 756.160156 267.90625 744.59375 Z M 267.90625 744.59375 " fill-opacity="1" fill-rule="nonzero"/></svg>