<svg xmlns="http://www.w3.org/2000/svg" xmlns:xlink="http://www.w3.org/1999/xlink" width="1080" zoomAndPan="magnify" viewBox="0 0 810 1012.49997" height="1350" preserveAspectRatio="xMidYMid meet" version="1.0"><defs><clipPath id="9786e573bb"><path d="M 0.199219 0 L 809.800781 0 L 809.800781 1012 L 0.199219 1012 Z M 0.199219 0 " clip-rule="nonzero"/></clipPath></defs><g clip-path="url(#9786e573bb)"><path fill="#ffffff" d="M 0.199219 0 L 809.800781 0 L 809.800781 1012 L 0.199219 1012 Z M 0.199219 0 " fill-opacity="1" fill-rule="nonzero"/><path fill="#ffffff" d="M 0.199219 0 L 809.800781 0 L 809.800781 1012 L 0.199219 1012 Z M 0.199219 0 " fill-opacity="1" fill-rule="nonzero"/></g><path fill="#ad8fb7" d="M 435.851562 348.027344 C 437.980469 342.855469 437.527344 337.320312 438.210938 331.964844 C 440.023438 317.539062 441.746094 303.109375 445.058594 288.867188 C 447.148438 279.972656 449.371094 271.125 452.773438 262.640625 C 456.675781 252.886719 460.394531 242.996094 464.976562 233.515625 C 473.324219 216.320312 483.394531 200.304688 497.960938 187.511719 C 514.15625 173.3125 532.710938 166.597656 553.671875 166.324219 C 562.203125 166.1875 570.140625 167.914062 577.988281 171.179688 C 590.285156 176.304688 601.671875 183.019531 613.242188 189.507812 C 622.179688 194.5 631.117188 199.445312 639.28125 205.660156 C 644.453125 209.605469 649.128906 213.960938 652.574219 219.632812 C 656.75 226.527344 658.609375 234.152344 659.5625 242.046875 C 662.195312 263.59375 660.152344 284.964844 655.886719 306.242188 C 654.664062 312.320312 653.574219 318.445312 652.710938 324.570312 C 652.347656 327.15625 650.988281 328.246094 648.808594 328.835938 C 648.675781 328.925781 648.582031 329.015625 648.449219 329.0625 C 648.539062 328.972656 648.675781 328.878906 648.765625 328.789062 C 650.488281 329.46875 651.578125 330.285156 651.035156 332.644531 C 648.039062 345.484375 645.226562 358.371094 642.277344 371.253906 C 641.324219 375.429688 640.144531 379.511719 639.191406 383.6875 C 638.785156 385.636719 638.058594 387.40625 637.152344 389.128906 C 636.46875 390.445312 635.335938 390.445312 634.203125 389.992188 C 633.519531 389.71875 632.433594 388.949219 632.976562 388.402344 C 635.789062 385.546875 632.023438 384.230469 631.84375 382.144531 C 631.75 381.417969 631.617188 380.601562 630.527344 380.417969 C 628.9375 383.050781 630.84375 386.679688 627.851562 389.402344 C 630.164062 390.171875 631.117188 392.804688 634.292969 392.035156 C 636.289062 391.535156 636.378906 393.710938 635.972656 395.34375 C 634.566406 400.789062 633.25 406.28125 631.660156 411.679688 C 628.621094 422.113281 625.398438 432.503906 622.269531 442.890625 C 622.222656 443.074219 622.179688 443.253906 622.089844 443.4375 C 619.277344 450.46875 617.1875 457.863281 614.285156 464.757812 C 609.429688 476.191406 605.890625 488.035156 601.265625 499.511719 C 600.175781 502.234375 599.632812 505.863281 595.09375 504.183594 C 594.550781 503.957031 593.371094 505.457031 592.234375 506.316406 C 595.230469 508.132812 596.5 510.535156 594.230469 513.847656 C 593.824219 514.4375 593.1875 514.9375 593.324219 515.84375 C 593.6875 518.976562 592.417969 517.976562 590.921875 516.933594 C 589.875 516.207031 589.195312 516.980469 588.695312 517.886719 C 587.652344 517.523438 586.203125 516.753906 585.519531 517.75 C 583.84375 520.199219 582.253906 517.839844 580.667969 517.976562 C 580.304688 523.238281 580.304688 523.238281 586.65625 525.28125 C 585.613281 522.242188 590.738281 521.335938 588.695312 517.929688 C 589.96875 518.613281 592.007812 518.792969 592.054688 520.609375 C 592.144531 523.195312 590.875 526.597656 589.285156 527.367188 C 586.339844 528.820312 587.15625 530.726562 587.0625 532.765625 C 587.019531 533.3125 586.835938 533.855469 586.746094 534.21875 C 585.929688 535.308594 585.339844 534.761719 584.660156 534.355469 C 583.523438 533.675781 582.300781 532.632812 581.121094 534.128906 C 580.121094 535.398438 581.4375 536.125 582.117188 536.988281 C 583.933594 539.34375 583.796875 541.796875 582.617188 544.5625 C 576.539062 558.898438 570.867188 573.460938 564.46875 587.664062 C 562.429688 592.199219 560.523438 596.78125 558.890625 601.457031 C 555.578125 610.847656 550.089844 619.238281 546.414062 628.496094 C 543.601562 635.527344 539.515625 641.925781 536.703125 648.957031 C 533.710938 656.578125 529.628906 663.65625 525.679688 670.777344 C 524.410156 673.136719 523.457031 675.679688 522.324219 678.082031 C 518.738281 685.839844 514.835938 693.460938 511.070312 701.085938 C 505.355469 712.746094 499.546875 724.359375 493.515625 735.929688 C 488.023438 746.453125 481.808594 756.480469 476.226562 766.960938 C 470.421875 777.847656 465.519531 789.101562 461.621094 800.667969 C 456.945312 814.550781 450.914062 827.84375 445.605469 841.410156 C 445.058594 842.816406 444.832031 844.402344 443.15625 845.628906 C 438.390625 838.507812 433.445312 831.566406 428.953125 824.351562 C 418.339844 807.335938 407.765625 790.234375 397.378906 773.039062 C 387.894531 757.339844 378.640625 741.460938 369.292969 725.628906 C 362.761719 714.605469 355.773438 703.851562 348.832031 693.054688 C 339.125 677.945312 329.371094 662.882812 320.433594 647.277344 C 319.207031 645.144531 317.574219 643.195312 316.304688 641.105469 C 314.578125 638.292969 312.128906 635.84375 313.171875 631.761719 C 313.628906 630.082031 311.628906 628.402344 309.996094 628.3125 C 307.59375 628.222656 306.730469 626.589844 305.734375 625.046875 C 298.335938 613.433594 291.167969 601.683594 283.636719 590.160156 C 279.871094 584.398438 275.5625 579.042969 271.390625 573.597656 C 257.824219 556.085938 244.894531 538.121094 232.328125 519.835938 C 220.214844 502.1875 207.511719 484.992188 194.851562 467.753906 C 189.316406 460.222656 183.964844 452.511719 178.566406 444.886719 C 176.796875 442.394531 174.933594 439.988281 172.710938 437.855469 C 169.128906 434.363281 168.128906 429.144531 164.910156 425.289062 C 163.820312 423.972656 165.953125 422.160156 165.40625 419.980469 C 164.136719 414.855469 161.277344 410.542969 159.238281 405.871094 C 152.070312 389.355469 147.578125 372.480469 151.75 354.105469 C 153.339844 347.117188 155.515625 340.269531 157.648438 333.417969 C 163.820312 313.136719 176.523438 297.621094 190.949219 283.011719 C 199.75 274.121094 209.597656 266.632812 219.667969 259.511719 C 222.4375 257.5625 224.929688 255.246094 227.652344 253.296875 C 231.148438 250.800781 235.636719 250.210938 238.585938 246.445312 C 240.265625 244.3125 242.035156 245.539062 242.21875 248.667969 C 242.261719 249.621094 242.125 250.621094 242.308594 251.527344 C 242.351562 251.84375 243.167969 252.070312 243.667969 252.160156 C 243.851562 252.207031 244.167969 251.707031 244.304688 251.390625 C 244.394531 251.253906 244.304688 251.027344 244.304688 250.847656 C 244.667969 243.132812 244.667969 242.996094 251.289062 240.683594 C 262.359375 236.78125 273.839844 235.011719 285.316406 233.105469 C 293.574219 231.699219 301.832031 229.839844 310.269531 229.886719 C 320.070312 229.976562 329.414062 231.792969 338.671875 234.96875 C 355.410156 240.683594 368.570312 251.027344 379.773438 264.503906 C 390.390625 277.25 401.414062 289.683594 410.714844 303.519531 C 417.113281 313.046875 422.332031 323.34375 428.046875 333.234375 C 430.8125 338.042969 432.21875 343.578125 435.894531 347.890625 C 435.851562 348.433594 435.941406 348.570312 436.121094 348.296875 C 436.167969 348.34375 435.941406 348.117188 435.851562 348.027344 Z M 368.796875 325.207031 C 368.660156 324.886719 368.570312 324.523438 368.339844 324.207031 C 368.023438 323.800781 367.390625 323.300781 367.070312 323.800781 C 366.707031 324.34375 367.523438 324.480469 367.886719 324.707031 C 368.160156 324.886719 368.476562 325.023438 368.796875 325.207031 C 368.386719 328.335938 368.386719 328.335938 372.515625 328.335938 C 372.152344 326.160156 370.066406 326.160156 368.796875 325.207031 Z M 389.800781 384.546875 C 389.257812 384.457031 388.667969 384.457031 388.167969 384.277344 C 387.125 383.914062 385.988281 383.277344 385.308594 384.730469 C 385.128906 385.09375 385.308594 385.953125 385.628906 386.226562 C 386.714844 387.179688 387.894531 387.585938 388.984375 386.089844 C 389.257812 385.636719 389.527344 385.09375 389.800781 384.546875 L 390.117188 384.457031 Z M 444.425781 630.265625 C 445.832031 630.628906 447.148438 631.851562 448.6875 630.761719 C 449.460938 630.21875 450.503906 629.71875 450.324219 628.632812 C 450.140625 627.632812 449.144531 627.222656 448.234375 626.953125 C 445.421875 626.226562 445.421875 628.859375 444.425781 630.265625 C 443.746094 630.308594 442.925781 629.902344 442.566406 630.898438 C 442.519531 631.035156 442.65625 631.308594 442.792969 631.351562 C 443.789062 631.714844 444.015625 630.855469 444.425781 630.265625 Z M 553.492188 504.59375 C 553.492188 504.183594 553.445312 503.730469 553.445312 503.324219 C 553.355469 503.414062 553.21875 503.550781 553.21875 503.640625 C 553.308594 504.003906 553.398438 504.320312 553.492188 504.59375 C 553.128906 505.457031 552.945312 506.679688 552.3125 507.132812 C 550.679688 508.269531 549.5 509.085938 551.859375 510.628906 C 552.449219 510.988281 552.675781 511.851562 552.355469 512.714844 C 551.539062 515.164062 552.808594 515.800781 554.898438 515.753906 C 556.078125 515.707031 557.121094 515.933594 557.847656 517.023438 C 558.074219 517.386719 558.117188 518.339844 558.890625 517.660156 C 559.253906 517.296875 559.660156 516.480469 559.480469 516.117188 C 557.574219 512.214844 556.9375 507.632812 553.492188 504.59375 Z M 468.742188 598.640625 C 473.414062 598.597656 476.136719 595.964844 478.132812 591.566406 C 470.964844 592.382812 467.746094 590.703125 465.292969 584.851562 C 464.839844 583.808594 464.207031 584.078125 463.570312 584.167969 C 462.707031 584.261719 462.300781 584.851562 462.164062 585.757812 C 461.980469 587.164062 463.433594 587.980469 463.207031 589.476562 C 462.480469 593.925781 462.570312 594.105469 465.65625 595.828125 C 466.882812 596.464844 468.742188 596.417969 468.742188 598.640625 L 468.425781 598.777344 Z M 544.007812 493.929688 C 544.144531 494.25 544.234375 494.566406 544.371094 494.882812 C 541.242188 498.515625 541.242188 498.695312 544.960938 500.738281 C 545.050781 501.007812 545.1875 501.28125 545.277344 501.554688 C 544.734375 503.457031 544.554688 505.226562 546.550781 506.589844 C 547.457031 504.867188 547.277344 502.960938 548.910156 501.960938 C 549.953125 501.328125 551.902344 502.597656 552.21875 500.644531 C 552.449219 499.058594 550.996094 497.96875 550.179688 496.746094 C 549 494.976562 548.320312 493.113281 548.09375 490.9375 C 547.773438 487.988281 545.324219 485.222656 543.828125 486.039062 C 541.558594 487.308594 542.558594 489.757812 542.375 491.753906 C 542.332031 492.796875 543.238281 493.339844 544.007812 493.929688 Z M 453 638.519531 C 453.136719 638.839844 453.226562 639.15625 453.363281 639.472656 C 450.097656 640.425781 449.050781 642.695312 449.234375 646.007812 C 449.371094 648.730469 450.914062 650.179688 453.5 649.410156 C 454.496094 649.136719 455.222656 648.410156 454.179688 647.324219 C 453.589844 646.6875 452.410156 646.640625 452.453125 645.28125 C 453.996094 644.011719 455.902344 642.921875 456.902344 641.015625 C 457.582031 639.699219 456.21875 635.4375 459.984375 638.929688 C 460.03125 638.976562 460.574219 638.566406 460.667969 638.292969 C 461.664062 635.664062 463.253906 633.121094 461.574219 630.128906 C 460.621094 630.355469 459.714844 630.265625 459.167969 630.71875 C 456.992188 632.578125 455.585938 634.9375 452 635.117188 C 450.097656 635.210938 450.957031 637.796875 453 638.519531 Z M 474.140625 490.621094 C 473.824219 490.4375 474.050781 489.484375 473.277344 489.9375 C 473.550781 490.121094 473.824219 490.394531 474.140625 490.621094 C 474.640625 492.75 474.6875 494.882812 473.460938 496.789062 C 472.644531 498.015625 472.328125 499.285156 472.417969 500.644531 C 472.507812 502.28125 474.367188 502.734375 474.640625 501.871094 C 475.730469 498.285156 483.035156 498.285156 479.949219 492.433594 C 479.539062 491.617188 480.765625 490.800781 481.308594 489.984375 C 482.261719 488.625 482.761719 487.125 481.761719 485.628906 C 480.449219 483.679688 480.902344 482.5 482.941406 481.546875 C 483.714844 481.183594 484.121094 480.410156 483.394531 479.730469 C 482.761719 479.097656 481.855469 479.367188 481.445312 480.09375 C 480.039062 482.632812 478.222656 484.359375 475.183594 484.539062 C 474.324219 484.585938 472.824219 484.496094 472.460938 485.992188 C 473.097656 487.851562 475.320312 487.941406 476.09375 489.53125 C 476.363281 490.03125 476.5 490.753906 475.773438 490.9375 C 475.230469 491.074219 474.6875 490.710938 474.140625 490.621094 Z M 449.507812 404.328125 C 451.046875 405.054688 452.320312 402.921875 453.816406 403.785156 C 455.359375 404.691406 454.769531 406.597656 455.402344 407.914062 C 456.039062 409.273438 456.808594 410.632812 457.71875 411.859375 C 459.214844 413.765625 461.800781 414.398438 463.253906 412.949219 C 464.839844 411.40625 467.246094 410.363281 468.5625 407.367188 C 462.527344 409.046875 459.441406 405.917969 456.765625 402.015625 C 456.175781 401.152344 454.8125 400.382812 455.539062 399.066406 C 456.492188 397.386719 457.898438 399.15625 459.125 398.75 C 457.855469 396.523438 456.21875 395.253906 453.542969 396.070312 C 451.277344 396.75 450.867188 398.339844 450.867188 400.5625 C 450.914062 401.832031 450.003906 403.105469 449.507812 404.328125 C 449.097656 404.375 448.6875 404.417969 448.28125 404.464844 C 448.371094 404.554688 448.507812 404.738281 448.597656 404.691406 C 448.917969 404.601562 449.1875 404.464844 449.507812 404.328125 Z M 529.445312 461.628906 C 528.902344 456.683594 525 453.554688 523.140625 449.289062 C 522.640625 448.109375 520.734375 448.199219 519.554688 449.152344 C 517.96875 450.421875 519.191406 451.511719 519.964844 452.554688 C 520.960938 453.917969 522.550781 454.871094 522.6875 456.820312 C 522.820312 459.089844 520.734375 459.40625 519.601562 460.585938 C 518.691406 461.492188 519.328125 462.355469 520.460938 462.582031 C 523.957031 463.261719 521.734375 459.453125 524 458.453125 C 525.363281 459.8125 527.496094 460.539062 529.445312 461.628906 C 529.128906 462.71875 528.765625 463.808594 528.3125 465.257812 C 530.035156 464.167969 531.578125 465.484375 533.164062 464.988281 C 534.074219 464.714844 534.707031 465.078125 534.800781 465.984375 C 534.890625 467.027344 534.4375 467.980469 533.300781 468.027344 C 532.394531 468.070312 531.351562 467.480469 530.535156 467.707031 C 529.128906 468.117188 528.039062 469.886719 529.535156 470.519531 C 532.257812 471.699219 531.667969 473.652344 531.804688 475.738281 C 531.941406 477.824219 533.300781 478.914062 535.296875 478.460938 C 538.335938 477.691406 540.0625 474.421875 539.289062 471.382812 C 538.746094 469.25 540.878906 466.574219 543.011719 466.574219 C 544.371094 466.574219 545.640625 466.710938 546.777344 467.574219 C 546.1875 469.523438 548.136719 471.566406 547.730469 472.652344 C 546.457031 476.101562 547.773438 479.324219 547.457031 482.636719 C 547.320312 484.359375 547.867188 485.675781 549.726562 485.992188 C 551.585938 486.355469 552.492188 485.265625 553.265625 483.769531 C 553.71875 482.863281 553.082031 481.09375 554.761719 481.046875 C 558.027344 481.046875 556.257812 478.871094 556.574219 477.460938 C 557.257812 474.515625 552.808594 476.328125 553.492188 473.289062 C 555.625 473.105469 556.757812 470.703125 559.117188 470.339844 C 561.160156 470.023438 561.476562 467.980469 560.660156 466.9375 C 558.617188 464.351562 557.664062 461.582031 557.984375 458.453125 C 555.851562 458 555.351562 459.679688 554.351562 460.449219 C 553.355469 461.175781 551.765625 461.128906 551.359375 462.71875 C 552.855469 463.625 554.308594 464.488281 555.125 466.074219 C 555.941406 467.707031 554.898438 469.613281 553.265625 468.980469 C 551.132812 468.164062 548.589844 469.476562 546.820312 467.527344 C 546.957031 460.085938 540.652344 463.261719 536.929688 461.675781 C 537.292969 460.496094 537.386719 459.269531 537.929688 458.363281 C 539.746094 455.324219 536.613281 456.277344 535.75 455.367188 C 535.660156 455.230469 535.570312 455.140625 535.480469 455.003906 C 535.570312 455.140625 535.660156 455.230469 535.707031 455.367188 C 535.34375 456.277344 534.527344 456.636719 533.753906 457.09375 C 533.4375 457.273438 533.121094 457.457031 532.847656 457.683594 C 532.757812 457.726562 532.804688 457.953125 532.804688 458.136719 C 533.121094 457.816406 533.484375 457.5 533.800781 457.136719 C 534.933594 457.5 536.839844 457.546875 536.160156 459.316406 C 535.617188 460.722656 533.527344 460.859375 532.394531 462.21875 C 531.625 463.125 530.351562 462.265625 529.445312 461.628906 Z M 520.371094 437.992188 C 518.464844 436.585938 516.695312 436.3125 514.925781 438.445312 C 514.019531 439.578125 515.109375 441.9375 512.886719 442.121094 C 510.933594 442.257812 510.117188 440.351562 508.710938 439.488281 C 507.125 438.535156 505.535156 437.675781 504.085938 436.359375 C 499.410156 432.230469 496.007812 433.273438 493.015625 439.535156 C 495.101562 439.261719 496.960938 440.894531 499.09375 439.761719 C 500.09375 439.21875 501.273438 439.578125 501.316406 440.667969 C 501.5 445.113281 504.628906 441.621094 505.898438 442.257812 C 506.804688 443.933594 504.71875 445.523438 506.398438 446.882812 C 507.488281 445.703125 508.214844 443.800781 510.34375 444.660156 C 512.476562 445.476562 514.019531 444.253906 515.425781 442.890625 C 517.332031 441.078125 518.921875 440.53125 521.414062 442.164062 C 523.867188 443.800781 526.542969 442.300781 527.175781 439.671875 C 527.628906 437.855469 526.359375 434.179688 524.910156 433.910156 C 522.230469 433.410156 522.097656 435.90625 521.324219 437.539062 C 521.007812 437.675781 520.6875 437.855469 520.371094 437.992188 Z M 262.585938 256.878906 C 264.039062 257.015625 265.171875 257.695312 266.308594 258.332031 C 266.988281 258.742188 267.578125 259.332031 267.167969 260.148438 C 266.578125 261.234375 265.898438 260.191406 265.265625 260.011719 C 264.582031 259.828125 264.039062 260.054688 263.992188 260.691406 C 263.949219 261.191406 264.128906 261.960938 264.449219 262.1875 C 267.667969 264.09375 270.890625 265.910156 273.023438 269.3125 C 273.476562 270.039062 274.746094 270.582031 275.019531 271.714844 C 275.199219 272.53125 275.5625 273.214844 276.46875 273.121094 C 277.511719 273.03125 277.96875 272.214844 278.464844 271.308594 C 280.144531 268.269531 278.785156 264.59375 280.6875 261.597656 C 277.605469 257.242188 281.597656 256.972656 284.5 255.566406 C 281.507812 254.339844 281.277344 250.257812 277.421875 249.984375 C 276.789062 251.390625 276.652344 252.75 277.152344 253.976562 C 278.058594 256.199219 277.46875 258.152344 276.289062 260.054688 C 275.515625 261.28125 275.246094 263.230469 273.066406 262.640625 C 271.207031 262.097656 270.4375 260.964844 270.300781 258.875 C 269.980469 254.839844 269.753906 254.703125 265.855469 256.019531 C 264.71875 256.335938 263.628906 256.109375 262.585938 256.878906 Z M 226.246094 395.800781 C 224.386719 394.621094 219.851562 397.070312 220.53125 391.941406 C 221.074219 391.808594 221.621094 391.488281 222.164062 391.535156 C 224.929688 391.761719 226.429688 389.992188 227.289062 387.769531 C 227.972656 385.953125 225.746094 383.820312 222.84375 382.597656 C 221.484375 382.007812 219.667969 383.003906 218.625 381.054688 C 218.988281 380.511719 219.394531 379.875 219.804688 379.238281 C 220.53125 378.105469 220.667969 376.878906 219.261719 376.425781 C 217.988281 376.019531 216.808594 377.289062 216.71875 378.242188 C 216.402344 382.777344 216.855469 387.316406 216.765625 391.851562 C 216.675781 394.800781 219.304688 398.066406 219.984375 401.46875 C 220.121094 402.195312 220.757812 402.921875 221.621094 402.785156 C 222.753906 402.648438 223.433594 401.742188 222.933594 400.746094 C 221.980469 398.929688 222.890625 398.339844 224.339844 397.839844 C 225.15625 397.613281 226.066406 397.25 226.246094 395.800781 Z M 582.34375 457.636719 C 581.300781 449.5625 574.042969 450.332031 569.414062 447.746094 C 567.964844 446.929688 565.648438 445.339844 562.566406 446.929688 C 567.917969 449.652344 567.191406 454.597656 568.054688 459.632812 C 569.324219 456.820312 570.640625 454.960938 573 457.863281 C 573.726562 458.726562 575.269531 459.179688 576.085938 458.273438 C 578.035156 456.140625 580.257812 457.546875 582.34375 457.636719 Z M 523.046875 554.632812 C 527.628906 554.90625 530.988281 552.59375 533.890625 549.328125 C 534.117188 549.101562 534.617188 549.191406 534.980469 549.007812 C 536.660156 548.28125 538.109375 543.339844 537.066406 541.839844 C 536.75 541.339844 535.886719 541.113281 535.617188 541.523438 C 533.484375 544.5625 530.808594 545.289062 527.449219 544.15625 C 527.085938 544.019531 526.179688 544.5625 526.042969 544.972656 C 524.773438 548.238281 521.097656 550.824219 523.046875 554.632812 Z M 225.15625 285.507812 C 226.699219 285.144531 228.789062 283.648438 228.5625 286.914062 C 228.332031 290.089844 228.199219 293.402344 225.566406 295.988281 C 228.425781 296.625 229.152344 299.664062 232.371094 300.433594 C 230.964844 297.167969 234.914062 294.039062 231.375 291.359375 C 231.691406 290.90625 231.917969 290.316406 232.371094 290.089844 C 235.09375 288.59375 233.734375 286.414062 233.234375 284.554688 C 232.6875 282.285156 230.691406 282.015625 228.742188 281.832031 C 226.019531 281.605469 225.746094 283.648438 225.15625 285.507812 Z M 495.511719 521.105469 C 497.960938 523.511719 502.542969 524.464844 500.09375 529.726562 C 503.222656 524.554688 502.632812 524.871094 500.226562 520.335938 C 498.820312 517.660156 495.917969 516.433594 495.871094 513.078125 C 491.472656 515.574219 491.925781 520.382812 489.429688 523.421875 C 488.886719 524.101562 489.339844 525.371094 490.292969 525.824219 C 491.246094 526.324219 492.152344 525.824219 492.789062 525.054688 C 493.648438 524.011719 493.648438 522.421875 495.511719 521.105469 Z M 276.605469 308.964844 C 280.234375 314.089844 280.234375 314.179688 285.953125 314.136719 C 287.628906 314.136719 288.3125 315.179688 289.128906 316.132812 C 292.441406 319.988281 292.441406 319.988281 295.390625 315.632812 C 295.570312 315.359375 295.480469 314.90625 295.523438 314.363281 C 292.214844 312.003906 288.128906 310.507812 284.363281 311.503906 C 282.050781 312.140625 281.007812 311.957031 279.691406 310.550781 C 278.964844 309.824219 278.285156 309.234375 276.605469 308.964844 Z M 249.65625 308.148438 C 247.480469 307.105469 247.207031 304.925781 245.980469 303.292969 C 244.394531 301.160156 248.523438 300.027344 247.34375 297.757812 C 241.945312 298.664062 240.71875 300.75 240.628906 309.78125 C 243.351562 307.558594 246.390625 310.867188 249.65625 308.148438 Z M 247.34375 371.574219 C 248.703125 370.890625 248.613281 369.304688 249.566406 368.714844 C 252.46875 366.808594 252.832031 364.585938 250.835938 361.863281 C 250.566406 361.5 251.335938 360.636719 249.882812 360.867188 C 245.753906 361.457031 243.851562 363.90625 245.121094 367.898438 C 245.484375 369.121094 245.800781 370.527344 247.34375 371.574219 Z M 546.550781 536.894531 C 547.546875 540.070312 550.722656 538.574219 552.085938 540.707031 C 554.21875 544.0625 555.441406 541.613281 557.257812 538.890625 C 553.265625 538.710938 550.949219 534.945312 546.550781 536.894531 Z M 223.070312 438.855469 C 222.210938 437.539062 221.574219 436.402344 220.757812 435.359375 C 220.121094 434.589844 219.214844 434.316406 218.261719 434.769531 C 217.128906 435.269531 216.492188 436.175781 216.402344 437.402344 C 216.3125 438.582031 217.128906 439.035156 217.945312 439.488281 C 219.578125 440.488281 221.164062 440.167969 223.070312 438.855469 Z M 425.007812 394.710938 C 422.921875 394.621094 422.011719 396.207031 420.5625 396.660156 C 419.699219 396.933594 419.699219 397.75 419.699219 398.566406 C 419.746094 399.835938 420.5625 399.972656 421.558594 400.199219 C 424.960938 400.878906 425.777344 399.746094 425.007812 394.710938 Z M 259.957031 299.890625 C 258.457031 299.164062 257.1875 300.570312 255.691406 300.34375 C 254.738281 300.207031 254.285156 301.433594 254.101562 302.429688 C 253.875 303.746094 254.691406 304.652344 255.554688 305.289062 C 256.507812 305.96875 257.234375 305.0625 257.960938 304.472656 C 259.367188 303.292969 259.957031 301.75 259.957031 299.890625 Z M 259.273438 473.378906 C 260.410156 473.5625 262.089844 474.921875 262.496094 472.835938 C 262.8125 471.246094 261.996094 469.207031 260.726562 468.34375 C 259.09375 467.210938 257.867188 469.113281 257.1875 470.25 C 255.964844 472.289062 258.050781 472.652344 259.273438 473.378906 Z M 283.863281 355.464844 C 283.863281 353.878906 284.636719 352.15625 283.820312 350.519531 C 283.183594 349.296875 282.140625 348.296875 280.6875 348.933594 C 279.191406 349.613281 280.007812 350.75 280.417969 351.792969 C 280.917969 352.972656 280.554688 354.46875 281.507812 355.511719 C 282.230469 356.28125 283.003906 356.644531 283.863281 355.464844 Z M 303.28125 466.4375 C 298.882812 461.582031 298.609375 461.582031 296.476562 466.890625 C 298.699219 466.347656 300.742188 468.660156 303.28125 466.4375 Z M 284.636719 529.273438 C 283.59375 529.273438 282.730469 529.683594 282.730469 530.816406 C 282.730469 533.222656 284.953125 534.582031 285.542969 536.804688 C 285.769531 537.621094 287.269531 537.03125 287.859375 536.261719 C 288.355469 535.671875 285.453125 529.5 284.636719 529.273438 Z M 445.875 545.289062 C 445.832031 546.921875 446.101562 547.921875 445.785156 548.691406 C 444.925781 550.640625 446.332031 550.960938 447.464844 551.550781 C 448.417969 552.046875 449.324219 551.820312 449.824219 550.777344 C 450.367188 549.597656 450.003906 548.554688 449.007812 547.785156 C 448.101562 547.105469 447.238281 546.421875 445.875 545.289062 Z M 213.136719 393.757812 C 211.457031 393.53125 210.59375 394.847656 209.914062 396.207031 C 209.414062 397.207031 209.867188 398.113281 210.957031 398.339844 C 212.726562 398.75 213.816406 397.796875 214.269531 396.117188 C 214.542969 395.164062 214.316406 394.257812 213.136719 393.757812 Z M 572 536.261719 C 573.40625 537.394531 569.144531 536.851562 571.277344 538.300781 C 572.773438 539.300781 574.316406 539.027344 574.996094 537.214844 C 575.449219 535.988281 575.496094 534.265625 573.863281 533.808594 C 572.09375 533.3125 572.363281 535.035156 572 536.261719 Z M 233.371094 417.667969 C 231.328125 416.578125 229.921875 414.988281 227.835938 416.125 C 227.335938 416.398438 227.15625 417.214844 227.515625 417.667969 C 229.105469 419.617188 230.964844 419.527344 233.371094 417.667969 Z M 419.382812 445.25 C 417.976562 444.933594 416.75 445.160156 416.160156 446.75 C 415.84375 447.566406 416.207031 448.425781 416.929688 448.699219 C 418.382812 449.242188 419.5625 448.652344 420.199219 447.203125 C 420.5625 446.339844 420.105469 445.703125 419.382812 445.25 Z M 576.175781 369.894531 C 577.582031 369.9375 579.214844 370.164062 579.757812 368.804688 C 580.347656 367.398438 578.761719 367.082031 577.808594 366.71875 C 576.765625 366.265625 575.539062 365.902344 575.359375 367.671875 C 575.3125 368.398438 574.996094 369.574219 576.175781 369.894531 Z M 333.40625 420.84375 C 331.503906 420.117188 329.777344 420.433594 329.460938 421.433594 C 329.050781 422.75 330.1875 422.929688 331.003906 423.292969 C 332.046875 423.792969 333.273438 424.019531 333.996094 422.792969 C 334.542969 421.839844 333.996094 421.070312 333.40625 420.84375 Z M 568.417969 549.417969 C 572.5 549.007812 573.089844 548.644531 575.085938 544.789062 C 572.363281 546.421875 570.324219 547.375 568.417969 549.417969 Z M 359.359375 356.238281 C 360.085938 356.417969 360.582031 356.238281 360.808594 355.601562 C 361.492188 353.652344 360.039062 352.835938 358.859375 351.972656 C 358.222656 351.519531 357.136719 351.835938 356.863281 352.5625 C 355.957031 354.96875 358.859375 354.785156 359.359375 356.238281 Z M 268.078125 388.765625 C 266.351562 390.308594 265.308594 391.488281 266.261719 393.347656 C 266.398438 393.574219 267.394531 393.621094 267.757812 393.394531 C 269.9375 392.078125 268.621094 390.671875 268.078125 388.765625 Z M 454.585938 612.707031 C 454.949219 611.117188 453.90625 610.527344 452.953125 609.984375 C 452.320312 609.621094 451.277344 609.304688 451.046875 610.210938 C 450.6875 611.753906 451.910156 612.570312 453.089844 613.113281 C 453.5 613.296875 454.132812 612.84375 454.585938 612.707031 Z M 475.730469 675.949219 C 476.410156 674.996094 476.273438 674.089844 475.683594 673.273438 C 474.957031 672.277344 474.050781 672.503906 473.277344 673.183594 C 472.554688 673.816406 472.78125 674.542969 473.507812 674.996094 C 474.1875 675.453125 474.59375 676.632812 475.730469 675.949219 Z M 301.058594 455.324219 C 300.105469 452.328125 299.789062 450.46875 296.976562 451.601562 C 298.246094 452.738281 299.199219 453.644531 301.058594 455.324219 Z M 510.4375 426.015625 C 510.074219 425.652344 509.9375 425.425781 509.800781 425.425781 C 508.894531 425.335938 507.941406 425.105469 507.035156 425.242188 C 506.445312 425.335938 506.445312 426.152344 506.988281 426.558594 C 507.851562 427.195312 508.804688 427.011719 509.710938 426.648438 C 509.890625 426.605469 509.984375 426.421875 510.4375 426.015625 Z M 240.992188 295.988281 C 241.445312 295.308594 241.582031 294.71875 241.128906 294.355469 C 240.628906 293.945312 240.085938 294.265625 239.765625 294.761719 C 239.449219 295.261719 239.402344 295.808594 239.859375 296.214844 C 240.355469 296.667969 240.808594 296.261719 240.992188 295.988281 Z M 330.777344 586.574219 C 331.003906 585.847656 330.457031 585.621094 330.003906 585.441406 C 329.507812 585.257812 328.734375 584.988281 328.417969 585.257812 C 327.964844 585.667969 328.234375 586.347656 328.734375 586.710938 C 329.414062 587.210938 330.140625 587.117188 330.777344 586.574219 Z M 346.472656 358.1875 C 346.203125 358.234375 345.746094 358.234375 345.613281 358.414062 C 345.476562 358.640625 345.476562 359.1875 345.613281 359.324219 C 346.066406 359.6875 346.566406 359.59375 346.792969 359.003906 C 346.835938 358.824219 346.566406 358.460938 346.472656 358.1875 Z M 535.523438 451.421875 C 535.34375 451.148438 535.207031 450.875 534.980469 450.648438 C 534.933594 450.605469 534.570312 450.785156 534.570312 450.875 C 534.570312 451.195312 534.570312 451.601562 534.800781 451.785156 C 535.027344 452.011719 535.34375 451.828125 535.523438 451.421875 Z M 567.238281 551.324219 C 566.964844 551.457031 566.738281 551.59375 566.464844 551.730469 C 566.464844 551.730469 566.648438 552.09375 566.648438 552.09375 C 566.921875 551.957031 567.238281 551.820312 567.511719 551.6875 C 567.417969 551.59375 567.328125 551.457031 567.238281 551.324219 Z M 567.238281 551.324219 " fill-opacity="1" fill-rule="nonzero"/></svg>