<svg xmlns="http://www.w3.org/2000/svg" xmlns:xlink="http://www.w3.org/1999/xlink" width="1080" zoomAndPan="magnify" viewBox="0 0 810 1012.49997" height="1350" preserveAspectRatio="xMidYMid meet" version="1.0"><path fill="#e5ef89" d="M 207.832031 448.695312 C 219.398438 448.554688 230.960938 449.402344 242.386719 451.234375 C 260.015625 453.914062 277.929688 453.914062 295.558594 451.375 C 311.777344 448.835938 327.152344 443.617188 342.242188 437.414062 C 353.246094 432.898438 360.4375 424.578125 365.234375 414.28125 C 371.296875 401.164062 376.796875 387.90625 382.15625 374.507812 C 387.09375 362.378906 390.902344 349.828125 397.53125 338.542969 C 406.558594 322.605469 419.535156 309.207031 435.1875 299.617188 C 446.753906 292.703125 458.039062 285.511719 469.601562 278.460938 C 477.925781 273.382812 487.234375 270.5625 496.683594 268.585938 C 519.8125 263.792969 542.664062 263.792969 565.652344 270.28125 C 592.730469 277.894531 619.105469 287.769531 644.632812 299.898438 C 663.535156 308.925781 679.472656 322.183594 694.28125 336.851562 C 702.460938 344.75 709.652344 353.632812 715.578125 363.367188 C 722.207031 374.367188 726.296875 386.777344 727.144531 399.613281 C 728.128906 413.4375 728.554688 427.117188 724.464844 440.515625 C 716.566406 466.609375 701.757812 487.621094 677.074219 500.035156 C 667.765625 504.828125 657.46875 508.074219 647.3125 511.035156 C 624.890625 517.664062 603.734375 527.820312 584.550781 541.21875 C 570.023438 551.230469 558.035156 564.066406 546.328125 577.324219 C 533.636719 591.851562 521.363281 606.660156 507.964844 620.484375 C 488.644531 640.371094 467.488281 658.28125 443.085938 671.679688 C 429.125 679.296875 414.738281 685.644531 399.082031 688.324219 C 371.863281 692.976562 346.617188 688.324219 324.613281 670.835938 C 312.203125 661.101562 300.355469 650.808594 288.226562 640.933594 C 277.363281 631.90625 266.503906 623.023438 253.671875 616.816406 C 239.285156 609.480469 223.207031 606.097656 207.125 606.800781 C 194.996094 607.507812 182.867188 608.777344 170.878906 609.765625 C 157.480469 610.75 144.082031 610.75 130.824219 607.789062 C 107.269531 602.710938 93.164062 587.761719 86.535156 565.195312 C 80.613281 544.460938 83.574219 524.292969 91.332031 504.6875 C 95.140625 495.097656 100.5 486.210938 107.128906 478.457031 C 116.296875 467.878906 128.144531 461.8125 141.261719 457.582031 C 155.789062 452.925781 170.738281 451.09375 185.828125 450.105469 Z M 207.832031 448.695312 " fill-opacity="1" fill-rule="nonzero"/></svg>