<svg xmlns="http://www.w3.org/2000/svg" xmlns:xlink="http://www.w3.org/1999/xlink" width="1080" zoomAndPan="magnify" viewBox="0 0 810 1012.49997" height="1350" preserveAspectRatio="xMidYMid meet" version="1.0"><defs><clipPath id="2d2b71c173"><path d="M 0.199219 0 L 809.800781 0 L 809.800781 1012 L 0.199219 1012 Z M 0.199219 0 " clip-rule="nonzero"/></clipPath><clipPath id="282dfdd67e"><path d="M 260 798 L 275 798 L 275 877.1875 L 260 877.1875 Z M 260 798 " clip-rule="nonzero"/></clipPath><clipPath id="b33855b7cb"><path d="M 132.601562 726 L 227 726 L 227 740 L 132.601562 740 Z M 132.601562 726 " clip-rule="nonzero"/></clipPath><clipPath id="92e6b381b5"><path d="M 532 206.265625 L 558 206.265625 L 558 335 L 532 335 Z M 532 206.265625 " clip-rule="nonzero"/></clipPath><clipPath id="b6b6ce53fe"><path d="M 588 385 L 677.582031 385 L 677.582031 397 L 588 397 Z M 588 385 " clip-rule="nonzero"/></clipPath></defs><g clip-path="url(#2d2b71c173)"><path fill="#ffffff" d="M 0.199219 0 L 809.800781 0 L 809.800781 1012 L 0.199219 1012 Z M 0.199219 0 " fill-opacity="1" fill-rule="nonzero"/><path fill="#ffffff" d="M 0.199219 0 L 809.800781 0 L 809.800781 1012 L 0.199219 1012 Z M 0.199219 0 " fill-opacity="1" fill-rule="nonzero"/></g><g clip-path="url(#282dfdd67e)"><path fill="#000000" d="M 270.109375 798.539062 C 270.109375 798.539062 269.976562 798.539062 270.109375 798.539062 C 267.425781 798.539062 265.140625 800.6875 265.140625 803.371094 C 265.140625 804.980469 264.875 809.945312 264.472656 818.402344 L 264.066406 828.066406 C 264.066406 829.136719 263.933594 830.75 263.800781 832.894531 C 263.128906 842.960938 262.726562 848.597656 262.589844 849.671875 L 260.847656 866.582031 C 260.710938 868.460938 260.578125 870.207031 260.441406 871.953125 C 260.175781 874.636719 262.1875 876.917969 264.875 877.1875 C 265.007812 877.1875 265.140625 877.1875 265.277344 877.1875 C 267.828125 877.1875 269.976562 875.308594 270.109375 872.621094 C 270.242188 870.878906 270.378906 869.265625 270.511719 867.523438 L 272.257812 850.613281 C 272.390625 849.402344 272.792969 843.765625 273.464844 833.566406 C 273.597656 831.285156 273.734375 829.675781 273.734375 828.46875 L 274.136719 818.804688 C 274.539062 810.347656 274.808594 805.25 274.808594 803.503906 C 274.941406 800.820312 272.792969 798.671875 270.109375 798.539062 Z M 270.109375 798.539062 " fill-opacity="1" fill-rule="nonzero"/></g><path fill="#000000" d="M 286.488281 581.789062 C 283.800781 581.789062 281.652344 584.070312 281.652344 586.753906 C 281.652344 589.167969 281.519531 592.121094 281.117188 595.613281 C 280.847656 598.160156 280.714844 600.039062 280.582031 600.980469 C 279.238281 611.046875 278.566406 617.21875 278.433594 619.234375 C 277.492188 627.6875 276.285156 640.976562 274.671875 659.09375 C 274.40625 661.777344 276.417969 664.195312 279.101562 664.328125 C 279.238281 664.328125 279.371094 664.328125 279.507812 664.328125 C 282.058594 664.328125 284.070312 662.449219 284.339844 659.898438 C 285.949219 641.78125 287.15625 628.492188 288.097656 620.039062 L 288.097656 619.902344 C 288.230469 618.023438 289.039062 611.984375 290.246094 602.054688 C 290.378906 600.980469 290.515625 599.101562 290.78125 596.417969 C 291.183594 592.660156 291.320312 589.4375 291.320312 586.621094 C 291.453125 583.933594 289.171875 581.789062 286.488281 581.789062 Z M 286.488281 581.789062 " fill-opacity="1" fill-rule="nonzero"/><path fill="#000000" d="M 325.148438 699.894531 C 326.089844 699.894531 327.027344 699.625 327.835938 699.089844 C 335.082031 694.121094 340.050781 691.035156 342.734375 689.695312 C 347.972656 687.007812 354.011719 684.191406 360.859375 681.371094 C 363.410156 680.296875 364.617188 677.480469 363.542969 675.066406 C 362.738281 673.183594 360.992188 671.976562 358.980469 671.976562 C 358.308594 671.976562 357.769531 672.113281 357.101562 672.378906 C 349.984375 675.199219 343.675781 678.152344 338.171875 680.96875 C 335.082031 682.582031 329.714844 685.933594 322.195312 691.035156 C 319.914062 692.511719 319.375 695.597656 320.855469 697.746094 C 322.0625 699.222656 323.671875 699.894531 325.148438 699.894531 Z M 325.148438 699.894531 " fill-opacity="1" fill-rule="nonzero"/><path fill="#000000" d="M 308.636719 794.511719 C 308.101562 794.242188 307.5625 794.242188 307.027344 794.242188 C 305.011719 794.242188 303.132812 795.453125 302.460938 797.464844 C 301.523438 800.015625 302.863281 802.832031 305.414062 803.636719 C 311.589844 805.785156 320.71875 812.496094 332.800781 823.902344 C 333.742188 824.710938 334.949219 825.246094 336.15625 825.246094 C 337.5 825.246094 338.707031 824.710938 339.78125 823.636719 C 341.660156 821.621094 341.527344 818.535156 339.515625 816.789062 C 326.222656 804.445312 316.019531 797.0625 308.636719 794.511719 Z M 308.636719 794.511719 " fill-opacity="1" fill-rule="nonzero"/><path fill="#000000" d="M 237.351562 777.601562 C 236.277344 777.601562 235.070312 778.003906 234.132812 778.808594 C 232.25 780.417969 222.183594 791.425781 203.792969 811.558594 C 201.914062 813.570312 202.179688 816.65625 204.058594 818.402344 C 205 819.207031 206.207031 819.609375 207.28125 819.609375 C 208.625 819.609375 209.96875 819.074219 210.90625 818 C 229.03125 798.136719 238.828125 787.398438 240.441406 785.921875 C 242.453125 784.179688 242.722656 781.089844 240.84375 779.078125 C 240.039062 778.273438 238.695312 777.601562 237.351562 777.601562 Z M 237.351562 777.601562 " fill-opacity="1" fill-rule="nonzero"/><path fill="#000000" d="M 583.4375 360.339844 C 584.644531 360.339844 585.988281 359.804688 586.925781 358.863281 C 595.382812 350.410156 600.484375 345.441406 602.367188 343.699219 L 602.5 343.5625 C 604.648438 341.550781 607.464844 339.539062 610.957031 337.660156 C 613.375 336.316406 614.179688 333.363281 612.835938 331.082031 C 611.898438 329.472656 610.285156 328.53125 608.539062 328.53125 C 607.734375 328.53125 606.929688 328.800781 606.125 329.203125 C 602.097656 331.484375 598.605469 333.902344 595.789062 336.453125 C 593.503906 338.332031 588.269531 343.5625 579.945312 351.886719 C 578.066406 353.765625 578.066406 356.851562 579.945312 358.730469 C 581.019531 359.804688 582.230469 360.339844 583.4375 360.339844 Z M 583.4375 360.339844 " fill-opacity="1" fill-rule="nonzero"/><path fill="#000000" d="M 232.789062 691.304688 C 233.730469 692.511719 235.207031 693.183594 236.683594 693.183594 C 237.757812 693.183594 238.828125 692.914062 239.636719 692.109375 C 241.785156 690.363281 242.050781 687.410156 240.441406 685.265625 C 236.546875 680.296875 232.789062 675.199219 229.433594 669.832031 C 228.492188 668.355469 226.882812 667.546875 225.269531 667.546875 C 224.332031 667.546875 223.527344 667.816406 222.585938 668.355469 C 220.304688 669.832031 219.632812 672.78125 221.109375 675.066406 C 224.867188 680.703125 228.761719 686.203125 232.789062 691.304688 Z M 232.789062 691.304688 " fill-opacity="1" fill-rule="nonzero"/><g clip-path="url(#b33855b7cb)"><path fill="#000000" d="M 221.109375 739.082031 C 221.242188 739.082031 221.242188 739.082031 221.109375 739.082031 C 223.792969 739.082031 226.078125 736.9375 226.078125 734.25 C 226.078125 731.566406 223.929688 729.285156 221.242188 729.285156 C 212.921875 729.152344 207.28125 729.015625 204.464844 728.882812 C 202.851562 728.882812 200.703125 728.75 198.019531 728.613281 C 188.621094 727.945312 181.371094 727.539062 176.003906 727.273438 C 173.855469 727.136719 172.109375 727.136719 171.035156 727.136719 C 169.695312 727.136719 165.53125 727.003906 158.6875 726.871094 C 156.804688 726.871094 155.0625 726.871094 153.449219 726.871094 C 150.496094 726.871094 148.082031 726.871094 146.46875 727.003906 C 143.113281 727.136719 139.890625 727.539062 137.070312 727.945312 C 134.386719 728.347656 132.640625 730.894531 133.042969 733.582031 C 133.449219 735.996094 135.460938 737.605469 137.878906 737.605469 C 138.144531 737.605469 138.414062 737.605469 138.683594 737.605469 C 141.234375 737.203125 144.054688 736.9375 147.007812 736.800781 C 148.347656 736.667969 150.496094 736.667969 153.316406 736.667969 C 154.792969 736.667969 156.539062 736.667969 158.417969 736.667969 C 165.398438 736.800781 169.558594 736.9375 170.769531 736.9375 C 171.839844 736.9375 173.453125 737.070312 175.601562 737.070312 C 180.835938 737.339844 188.085938 737.742188 197.347656 738.410156 C 200.167969 738.546875 202.316406 738.679688 204.058594 738.679688 C 207.148438 738.949219 212.785156 739.082031 221.109375 739.082031 Z M 221.109375 739.082031 " fill-opacity="1" fill-rule="nonzero"/></g><path fill="#000000" d="M 478.054688 368.796875 C 478.996094 369.871094 480.335938 370.273438 481.542969 370.273438 C 482.753906 370.273438 483.960938 369.871094 484.902344 368.929688 C 486.914062 367.050781 486.914062 363.964844 485.167969 362.085938 C 477.515625 353.898438 471.207031 347.859375 466.375 343.699219 C 465.433594 342.894531 464.363281 342.492188 463.289062 342.492188 C 461.945312 342.492188 460.46875 343.027344 459.527344 344.234375 C 457.785156 346.25 458.050781 349.335938 460.066406 351.082031 C 464.765625 354.972656 470.671875 360.878906 478.054688 368.796875 Z M 478.054688 368.796875 " fill-opacity="1" fill-rule="nonzero"/><g clip-path="url(#92e6b381b5)"><path fill="#000000" d="M 553.230469 206.265625 C 552.964844 206.265625 552.828125 206.265625 552.558594 206.265625 C 550.144531 206.265625 548.128906 208.011719 547.726562 210.425781 C 547.191406 213.917969 546.652344 217.675781 545.984375 221.433594 C 543.027344 237.402344 540.882812 248.945312 539.671875 256.058594 C 538.597656 262.636719 537.660156 268.273438 537.121094 272.96875 C 534.839844 291.894531 533.363281 310.816406 532.691406 329.605469 C 532.558594 332.289062 534.707031 334.570312 537.390625 334.570312 C 537.523438 334.570312 537.523438 334.570312 537.523438 334.570312 C 540.210938 334.570312 542.359375 332.558594 542.359375 329.875 C 543.027344 311.355469 544.507812 292.699219 546.789062 274.042969 C 547.324219 269.480469 548.128906 263.976562 549.203125 257.535156 C 550.414062 250.421875 552.558594 238.878906 555.515625 223.042969 L 555.515625 222.910156 C 556.183594 219.015625 556.855469 215.257812 557.257812 211.5 C 557.796875 209.085938 555.917969 206.667969 553.230469 206.265625 Z M 553.230469 206.265625 " fill-opacity="1" fill-rule="nonzero"/></g><path fill="#000000" d="M 597.800781 452.8125 C 592.296875 448.785156 583.035156 442.476562 569.742188 434.15625 C 568.9375 433.621094 568 433.351562 567.191406 433.351562 C 565.582031 433.351562 563.972656 434.15625 563.03125 435.632812 C 561.554688 437.914062 562.226562 440.867188 564.507812 442.34375 C 577.53125 450.53125 586.660156 456.570312 591.894531 460.460938 C 592.699219 461.132812 593.773438 461.402344 594.847656 461.402344 C 596.324219 461.402344 597.800781 460.730469 598.742188 459.386719 C 600.484375 457.507812 599.949219 454.421875 597.800781 452.8125 Z M 597.800781 452.8125 " fill-opacity="1" fill-rule="nonzero"/><g clip-path="url(#b6b6ce53fe)"><path fill="#000000" d="M 672.710938 386.914062 C 663.042969 386.511719 656.867188 386.242188 653.78125 386.109375 C 647.203125 385.976562 641.96875 385.839844 637.671875 385.839844 C 637.402344 385.839844 637.136719 385.839844 636.867188 385.839844 L 636.597656 385.839844 C 632.035156 385.839844 625.992188 385.976562 618.609375 386.109375 C 615.253906 386.242188 606.929688 386.511719 593.640625 387.046875 L 593.503906 387.046875 C 590.820312 387.183594 588.671875 389.464844 588.804688 392.148438 C 588.941406 394.832031 591.089844 396.847656 593.640625 396.847656 C 593.773438 396.847656 593.773438 396.847656 593.90625 396.847656 L 594.042969 396.847656 C 607.332031 396.308594 615.519531 396.039062 618.878906 396.039062 C 626.261719 395.773438 632.167969 395.773438 636.597656 395.773438 L 636.867188 395.773438 C 637.136719 395.773438 637.269531 395.773438 637.539062 395.773438 C 641.566406 395.773438 646.933594 395.90625 653.378906 396.039062 C 656.199219 396.039062 662.507812 396.308594 671.90625 396.847656 C 672.039062 396.847656 672.039062 396.847656 672.171875 396.847656 C 674.722656 396.847656 676.871094 394.832031 677.003906 392.148438 C 677.542969 389.332031 675.394531 387.046875 672.710938 386.914062 Z M 672.710938 386.914062 " fill-opacity="1" fill-rule="nonzero"/></g><path fill="#000000" d="M 446.105469 390 C 446.105469 390 445.96875 390 445.96875 390 C 435.5 390.269531 428.519531 390.539062 425.160156 390.671875 L 389.855469 392.015625 C 387.171875 392.148438 385.023438 394.429688 385.15625 397.113281 C 385.292969 399.796875 387.4375 401.8125 389.988281 401.8125 C 389.988281 401.8125 390.125 401.8125 390.125 401.8125 L 425.429688 400.46875 C 428.785156 400.335938 435.632812 400.203125 446.105469 399.933594 C 448.789062 399.796875 450.9375 397.652344 450.804688 394.96875 C 450.9375 392.148438 448.789062 390 446.105469 390 Z M 446.105469 390 " fill-opacity="1" fill-rule="nonzero"/><path fill="#000000" d="M 549.203125 499.113281 C 549.070312 496.699219 548.9375 492.941406 548.800781 487.707031 C 548.800781 486.902344 548.800781 484.753906 548.667969 481.265625 C 548.667969 476.296875 548.667969 472.808594 548.53125 470.929688 C 548.53125 468.378906 548.398438 465.964844 548.265625 463.683594 C 547.996094 458.984375 547.460938 453.082031 546.519531 446.101562 L 546.519531 445.96875 C 546.25 443.550781 544.101562 441.804688 541.6875 441.804688 C 541.417969 441.804688 541.285156 441.804688 541.015625 441.804688 C 538.332031 442.210938 536.449219 444.625 536.855469 447.175781 L 536.855469 447.308594 C 537.792969 454.019531 538.332031 459.65625 538.597656 464.085938 C 538.734375 466.234375 538.867188 468.515625 538.867188 471.0625 C 538.867188 472.941406 539 476.164062 539 481.128906 C 539 484.753906 539.136719 487.035156 539.136719 487.707031 C 539.269531 493.074219 539.40625 496.96875 539.539062 499.382812 C 539.808594 505.421875 540.34375 514.953125 541.550781 528.238281 C 541.820312 530.789062 543.835938 532.667969 546.386719 532.667969 C 546.519531 532.667969 546.652344 532.667969 546.789062 532.667969 C 549.472656 532.398438 551.488281 530.117188 551.21875 527.433594 C 550.144531 514.414062 549.472656 505.019531 549.339844 499.113281 Z M 549.203125 499.113281 " fill-opacity="1" fill-rule="nonzero"/><path fill="#000000" d="M 438.453125 751.429688 C 427.578125 750.625 419.925781 749.953125 415.628906 749.417969 L 415.496094 749.417969 C 412.007812 749.148438 398.445312 747.269531 374.6875 744.046875 L 374.417969 744.046875 C 366.898438 743.109375 362.199219 742.574219 360.320312 742.304688 C 357.367188 741.902344 348.105469 741.097656 332.265625 739.886719 C 332.128906 739.886719 331.996094 739.886719 331.863281 739.886719 C 329.3125 739.886719 327.164062 741.765625 327.027344 744.453125 C 326.761719 747.136719 328.773438 749.417969 331.457031 749.6875 C 347.164062 750.894531 356.292969 751.699219 358.980469 752.101562 L 359.113281 752.101562 C 360.859375 752.234375 365.558594 752.90625 373.210938 753.847656 C 397.105469 757.066406 410.933594 758.945312 414.554688 759.347656 C 418.988281 759.886719 426.773438 760.558594 437.78125 761.363281 C 437.914062 761.363281 438.050781 761.363281 438.183594 761.363281 C 440.734375 761.363281 442.882812 759.347656 443.015625 756.796875 C 443.152344 753.847656 441.136719 751.566406 438.453125 751.429688 Z M 438.453125 751.429688 " fill-opacity="1" fill-rule="nonzero"/><path fill="#000000" d="M 488.390625 446.234375 C 487.050781 446.234375 485.707031 446.773438 484.765625 447.847656 C 479.933594 453.082031 477.25 456.03125 476.578125 456.839844 C 476.308594 457.105469 476.175781 457.375 476.039062 457.644531 C 474.5625 459.386719 472.683594 461.9375 470 465.425781 C 468.390625 467.574219 468.792969 470.660156 470.941406 472.273438 C 471.878906 472.945312 472.820312 473.210938 473.894531 473.210938 C 475.371094 473.210938 476.847656 472.539062 477.785156 471.199219 C 480.605469 467.441406 482.753906 464.757812 483.960938 463.28125 C 484.09375 463.144531 484.230469 462.878906 484.363281 462.742188 C 485.167969 461.804688 487.71875 458.984375 491.882812 454.554688 C 493.761719 452.542969 493.628906 449.457031 491.613281 447.710938 C 490.808594 446.636719 489.597656 446.234375 488.390625 446.234375 Z M 488.390625 446.234375 " fill-opacity="1" fill-rule="nonzero"/></svg>