<svg xmlns="http://www.w3.org/2000/svg" xmlns:xlink="http://www.w3.org/1999/xlink" width="1080" zoomAndPan="magnify" viewBox="0 0 810 1012.49997" height="1350" preserveAspectRatio="xMidYMid meet" version="1.0"><defs><clipPath id="bd28a16a94"><path d="M 0.199219 0 L 809.800781 0 L 809.800781 1012 L 0.199219 1012 Z M 0.199219 0 " clip-rule="nonzero"/></clipPath><clipPath id="0045f14138"><path d="M 122.113281 127 L 688 127 L 688 885 L 122.113281 885 Z M 122.113281 127 " clip-rule="nonzero"/></clipPath></defs><g clip-path="url(#bd28a16a94)"><path fill="#ffffff" d="M 0.199219 0 L 809.800781 0 L 809.800781 1012 L 0.199219 1012 Z M 0.199219 0 " fill-opacity="1" fill-rule="nonzero"/><path fill="#ffffff" d="M 0.199219 0 L 809.800781 0 L 809.800781 1012 L 0.199219 1012 Z M 0.199219 0 " fill-opacity="1" fill-rule="nonzero"/></g><g clip-path="url(#0045f14138)"><path fill="#ad8fb7" d="M 542.328125 623.699219 C 530.574219 632.554688 521.527344 644.691406 515.132812 657.945312 C 508.742188 671.203125 504.917969 685.574219 502.484375 700.089844 C 497.625 729.117188 498.222656 758.867188 493.0625 787.84375 C 489.660156 806.964844 483.660156 825.835938 473.328125 842.285156 C 462.996094 858.730469 448.089844 872.667969 430.027344 879.808594 C 420.996094 883.382812 411.253906 885.222656 401.546875 884.898438 C 391.839844 884.574219 382.179688 882.066406 373.683594 877.363281 C 365.183594 872.664062 357.878906 865.757812 352.957031 857.382812 C 348.035156 849.011719 345.546875 839.183594 346.171875 829.492188 C 346.90625 818.21875 351.722656 807.582031 357.636719 797.957031 C 363.550781 788.332031 370.617188 779.449219 376.523438 769.820312 C 382.429688 760.191406 387.230469 749.542969 387.933594 738.269531 C 388.285156 732.628906 387.585938 726.894531 385.574219 721.617188 C 383.5625 716.335938 380.210938 711.53125 375.742188 708.074219 C 371.871094 705.078125 367.21875 703.140625 362.398438 702.292969 C 357.574219 701.445312 352.585938 701.671875 347.8125 702.753906 C 338.261719 704.917969 329.726562 710.421875 322.59375 717.128906 C 308.324219 730.542969 299.214844 748.671875 285.152344 762.300781 C 271.195312 775.832031 252.597656 784.386719 233.285156 786.589844 C 213.96875 788.792969 194.050781 784.699219 176.96875 775.417969 C 159.890625 766.136719 145.6875 751.757812 136.257812 734.761719 C 126.828125 717.761719 122.148438 698.21875 122.441406 678.785156 C 123.023438 639.914062 143.898438 602.535156 174.914062 579.09375 C 205.929688 555.65625 246.171875 545.765625 284.917969 548.949219 C 311.125 551.101562 336.546875 558.886719 362.585938 562.554688 C 396.730469 567.367188 432.445312 564.84375 464.113281 551.191406 C 495.777344 537.535156 523.007812 512.042969 534.925781 479.683594 C 540.882812 463.503906 542.953125 445.839844 540.351562 428.792969 C 537.75 411.75 530.421875 395.378906 519.03125 382.433594 C 507.640625 369.492188 492.171875 360.082031 475.320312 356.4375 C 458.464844 352.796875 440.3125 355.039062 425.09375 363.140625 C 404.714844 373.992188 391.105469 393.894531 376.738281 411.96875 C 369.554688 421.007812 361.941406 429.804688 352.917969 437.003906 C 343.890625 444.203125 333.335938 449.777344 321.9375 451.621094 C 308.5 453.789062 294.371094 450.550781 282.875 443.261719 C 271.378906 435.972656 262.523438 424.773438 257.492188 412.125 C 252.460938 399.476562 251.1875 385.449219 253.226562 371.988281 C 255.265625 358.53125 260.558594 345.644531 268.03125 334.265625 C 282.972656 311.511719 306.191406 295.191406 331.019531 284.019531 C 355.847656 272.847656 382.476562 266.378906 408.863281 259.679688 C 422.179688 256.296875 436.078125 252.519531 446.097656 243.121094 C 451.109375 238.421875 454.964844 232.335938 456.296875 225.597656 C 457.628906 218.859375 456.253906 211.476562 451.96875 206.109375 C 449.765625 203.347656 446.882812 201.1875 443.785156 199.5 C 440.683594 197.8125 437.359375 196.578125 434.011719 195.457031 C 427.320312 193.214844 420.320312 191.320312 414.667969 187.09375 C 408.027344 182.132812 403.847656 174.152344 403.148438 165.898438 C 402.449219 157.640625 405.144531 149.21875 410.1875 142.644531 C 415.234375 136.070312 422.535156 131.34375 430.488281 129.027344 C 438.445312 126.714844 447.019531 126.769531 455.058594 128.773438 C 470.910156 132.726562 484.121094 143.941406 494.035156 156.925781 C 503.945312 169.914062 511.050781 184.769531 518.886719 199.105469 C 526.726562 213.4375 535.566406 227.601562 548.070312 238.121094 C 554.320312 243.378906 561.453125 247.660156 569.214844 250.210938 C 576.972656 252.765625 585.375 253.546875 593.390625 251.96875 C 606.789062 249.328125 617.96875 240.511719 629.785156 233.660156 C 635.691406 230.234375 641.933594 227.234375 648.605469 225.777344 C 655.277344 224.324219 662.449219 224.5 668.703125 227.242188 C 675.753906 230.339844 681.1875 236.546875 684.199219 243.636719 C 687.210938 250.726562 687.941406 258.636719 687.246094 266.304688 C 685.859375 281.648438 679.054688 295.894531 674.765625 310.6875 C 668.164062 333.460938 667.554688 357.609375 669.699219 381.222656 C 671.839844 404.835938 676.671875 428.109375 680.804688 451.457031 C 684.574219 472.773438 687.773438 494.472656 685.578125 516.011719 C 683.378906 537.546875 675.25 559.175781 659.375 573.894531 C 643.683594 588.4375 622.289062 594.824219 601.59375 600.234375 C 580.894531 605.640625 559.414062 610.824219 542.328125 623.699219 Z M 542.328125 623.699219 " fill-opacity="1" fill-rule="nonzero"/></g></svg>