<svg xmlns="http://www.w3.org/2000/svg" xmlns:xlink="http://www.w3.org/1999/xlink" width="1080" zoomAndPan="magnify" viewBox="0 0 810 1012.49997" height="1350" preserveAspectRatio="xMidYMid meet" version="1.0"><defs><clipPath id="e5dc7ba506"><path d="M 0.199219 0 L 809.800781 0 L 809.800781 1012 L 0.199219 1012 Z M 0.199219 0 " clip-rule="nonzero"/></clipPath><clipPath id="e1afad727c"><path d="M 61 224 L 749.300781 224 L 749.300781 789 L 61 789 Z M 61 224 " clip-rule="nonzero"/></clipPath></defs><g clip-path="url(#e5dc7ba506)"><path fill="#ffffff" d="M 0.199219 0 L 809.800781 0 L 809.800781 1012 L 0.199219 1012 Z M 0.199219 0 " fill-opacity="1" fill-rule="nonzero"/><path fill="#ffffff" d="M 0.199219 0 L 809.800781 0 L 809.800781 1012 L 0.199219 1012 Z M 0.199219 0 " fill-opacity="1" fill-rule="nonzero"/></g><g clip-path="url(#e1afad727c)"><path fill="#2cb5ae" d="M 728.273438 322.367188 C 727.101562 335.347656 721.707031 347.640625 714.730469 358.648438 C 707.753906 369.65625 699.195312 379.554688 690.972656 389.664062 C 682.75 399.773438 674.773438 410.234375 669.179688 422.003906 C 663.582031 433.773438 660.472656 447.046875 662.449219 459.929688 C 664.675781 474.421875 673.136719 487.304688 683.292969 497.890625 C 693.445312 508.472656 705.367188 517.164062 716.464844 526.753906 C 727.5625 536.34375 738.066406 547.140625 744.21875 560.453125 C 747.296875 567.113281 749.226562 574.34375 749.417969 581.675781 C 749.605469 589.003906 748.007812 596.433594 744.421875 602.828125 C 739.390625 611.792969 730.691406 618.3125 721.171875 622.179688 C 711.648438 626.046875 701.304688 627.457031 691.039062 627.984375 C 680.777344 628.511719 670.484375 628.195312 660.222656 628.777344 C 649.960938 629.355469 639.621094 630.871094 630.160156 634.882812 C 613.644531 641.878906 601.03125 656.003906 592.035156 671.519531 C 583.039062 687.039062 577.183594 704.128906 570.425781 720.742188 C 563.667969 737.359375 555.765625 753.886719 543.507812 766.980469 C 537.375 773.527344 530.183594 779.140625 522.089844 783.003906 C 513.996094 786.871094 504.984375 788.945312 496.027344 788.464844 C 487.085938 787.988281 478.367188 784.96875 470.734375 780.292969 C 463.097656 775.617188 456.527344 769.3125 451.074219 762.210938 C 440.171875 748.011719 433.800781 730.90625 428.289062 713.871094 C 422.777344 696.835938 417.90625 679.4375 409.460938 663.648438 C 401.015625 647.863281 388.453125 633.527344 371.832031 626.867188 C 356.636719 620.78125 339.417969 621.644531 323.554688 625.683594 C 307.695312 629.726562 292.789062 636.757812 277.636719 642.949219 C 262.480469 649.136719 246.691406 654.566406 230.332031 655.121094 C 222.152344 655.398438 213.890625 654.425781 206.140625 651.792969 C 198.394531 649.160156 191.167969 644.828125 185.535156 638.886719 C 176.414062 629.261719 171.953125 615.933594 170.925781 602.714844 C 169.898438 589.492188 172.035156 576.238281 174.625 563.230469 C 177.214844 550.226562 180.269531 537.25 181.109375 524.015625 C 181.949219 510.78125 180.445312 497.085938 174.359375 485.304688 C 168.871094 474.675781 159.929688 466.152344 150.039062 459.425781 C 140.148438 452.703125 129.25 447.628906 118.46875 442.449219 C 107.6875 437.269531 96.898438 431.914062 87.351562 424.707031 C 77.804688 417.5 69.476562 408.273438 65.066406 397.160156 C 60.632812 385.984375 60.40625 373.320312 63.71875 361.765625 C 67.027344 350.207031 73.765625 339.757812 82.402344 331.398438 C 99.675781 314.675781 123.753906 306.640625 147.601562 303.59375 C 171.449219 300.542969 195.613281 301.96875 219.648438 301.429688 C 243.6875 300.890625 268.265625 298.214844 289.863281 287.644531 C 310.738281 277.429688 327.449219 260.550781 346.066406 246.640625 C 355.375 239.683594 365.292969 233.398438 376.140625 229.234375 C 386.988281 225.066406 398.851562 223.089844 410.332031 224.875 C 424.09375 227.015625 436.59375 234.421875 447.027344 243.652344 C 457.460938 252.878906 466.085938 263.925781 474.84375 274.761719 C 483.597656 285.59375 492.636719 296.371094 503.679688 304.859375 C 514.722656 313.347656 528.054688 319.46875 541.980469 319.699219 C 552.800781 319.875 563.460938 316.492188 573.015625 311.410156 C 582.570312 306.328125 591.132812 299.582031 599.421875 292.621094 C 607.710938 285.664062 615.800781 278.429688 624.652344 272.207031 C 633.507812 265.984375 643.222656 260.746094 653.757812 258.265625 C 672.355469 253.882812 692.933594 258.828125 707.441406 271.265625 C 721.949219 283.703125 729.992188 303.335938 728.273438 322.367188 Z M 728.273438 322.367188 " fill-opacity="1" fill-rule="nonzero"/></g></svg>