<svg xmlns="http://www.w3.org/2000/svg" xmlns:xlink="http://www.w3.org/1999/xlink" width="1080" zoomAndPan="magnify" viewBox="0 0 810 1012.49997" height="1350" preserveAspectRatio="xMidYMid meet" version="1.0"><defs><clipPath id="07b67a4bcc"><path d="M 0.199219 0 L 809.800781 0 L 809.800781 1012 L 0.199219 1012 Z M 0.199219 0 " clip-rule="nonzero"/></clipPath><clipPath id="386f1d38e6"><path d="M 630 575 L 688 575 L 688 620.316406 L 630 620.316406 Z M 630 575 " clip-rule="nonzero"/></clipPath></defs><g clip-path="url(#07b67a4bcc)"><path fill="#ffffff" d="M 0.199219 0 L 809.800781 0 L 809.800781 1012 L 0.199219 1012 Z M 0.199219 0 " fill-opacity="1" fill-rule="nonzero"/><path fill="#ffffff" d="M 0.199219 0 L 809.800781 0 L 809.800781 1012 L 0.199219 1012 Z M 0.199219 0 " fill-opacity="1" fill-rule="nonzero"/></g><path fill="#e5ef89" d="M 165.355469 452.21875 C 153.1875 443.816406 140.503906 436.15625 128.242188 427.878906 C 121.808594 421.726562 110.417969 427.011719 112.523438 436.097656 C 114.042969 442.46875 121.609375 444.09375 126.121094 447.96875 C 136.011719 454.417969 146.039062 460.699219 155.757812 467.378906 C 157.433594 468.402344 159.078125 468.835938 160.625 468.835938 C 168.363281 468.835938 173.492188 457.722656 165.355469 452.21875 Z M 165.355469 452.21875 " fill-opacity="1" fill-rule="nonzero"/><path fill="#e5ef89" d="M 145.945312 537.382812 C 145.945312 537.382812 146.039062 537.382812 146.101562 537.382812 C 157.726562 537.382812 158.285156 520.144531 146.582031 519.464844 C 135.203125 519.046875 123.808594 518.78125 112.460938 517.898438 C 109.332031 517.589844 107.175781 516.535156 103.597656 518.394531 C 96.773438 521.695312 97.707031 532.964844 105.160156 534.839844 C 108.632812 535.695312 112.261719 535.847656 115.8125 536.128906 C 125.839844 536.75 135.902344 536.964844 145.945312 537.382812 Z M 145.945312 537.382812 " fill-opacity="1" fill-rule="nonzero"/><path fill="#e5ef89" d="M 112.152344 607.21875 C 113.65625 608.179688 115.175781 608.550781 116.695312 608.550781 C 121.144531 608.550781 125.5625 605.25 129.625 603.5 C 140.179688 598.152344 150.503906 592.351562 160.875 586.695312 C 171.105469 580.835938 162.84375 565.566406 152.378906 570.898438 C 139.777344 577.796875 127.234375 584.867188 114.261719 591.035156 C 107.144531 592.925781 105.796875 603.546875 112.152344 607.203125 Z M 112.152344 607.21875 " fill-opacity="1" fill-rule="nonzero"/><path fill="#e5ef89" d="M 695.804688 427.460938 C 686.363281 431.320312 676.925781 435.195312 667.484375 439.089844 C 660.152344 442.125 652.820312 445.117188 645.550781 448.296875 C 637.691406 450.683594 628.714844 457.722656 635.644531 466.121094 C 637.441406 468.105469 639.519531 468.882812 641.6875 468.867188 C 644.679688 468.867188 647.796875 467.410156 650.433594 465.734375 C 667.53125 458.203125 684.9375 451.394531 702.191406 444.234375 C 713.089844 439.722656 706.859375 423.507812 695.804688 427.460938 Z M 695.804688 427.460938 " fill-opacity="1" fill-rule="nonzero"/><path fill="#e5ef89" d="M 697.433594 515.0625 C 680.070312 514.765625 662.710938 514.332031 645.378906 513.292969 C 633.597656 513.171875 633.007812 530.546875 644.742188 531.230469 C 662.074219 532.269531 679.449219 532.6875 696.796875 532.996094 C 696.828125 532.996094 696.875 532.996094 696.90625 532.996094 C 708.59375 532.996094 709.136719 515.726562 697.433594 515.0625 Z M 697.433594 515.0625 " fill-opacity="1" fill-rule="nonzero"/><g clip-path="url(#386f1d38e6)"><path fill="#e5ef89" d="M 673.964844 619.140625 C 675.621094 620.132812 677.265625 620.566406 678.800781 620.566406 C 686.613281 620.566406 691.757812 609.421875 683.558594 603.996094 C 671.203125 596.523438 659.160156 588.554688 647.378906 580.183594 C 643.953125 577.082031 639.703125 574.355469 634.761719 577.039062 C 630.511719 579.316406 628.714844 584.910156 631.117188 589.175781 C 633.472656 592.957031 637.644531 595.035156 641.101562 597.683594 C 651.828125 605.1875 662.753906 612.410156 673.980469 619.140625 Z M 673.964844 619.140625 " fill-opacity="1" fill-rule="nonzero"/></g></svg>