<svg xmlns="http://www.w3.org/2000/svg" xmlns:xlink="http://www.w3.org/1999/xlink" width="1080" zoomAndPan="magnify" viewBox="0 0 810 1012.49997" height="1350" preserveAspectRatio="xMidYMid meet" version="1.0"><defs><clipPath id="ef33d50c5d"><path d="M 0.199219 0 L 809.800781 0 L 809.800781 1012 L 0.199219 1012 Z M 0.199219 0 " clip-rule="nonzero"/></clipPath></defs><g clip-path="url(#ef33d50c5d)"><path fill="#ffffff" d="M 0.199219 0 L 809.800781 0 L 809.800781 1012 L 0.199219 1012 Z M 0.199219 0 " fill-opacity="1" fill-rule="nonzero"/><path fill="#ffffff" d="M 0.199219 0 L 809.800781 0 L 809.800781 1012 L 0.199219 1012 Z M 0.199219 0 " fill-opacity="1" fill-rule="nonzero"/></g><path fill="#4ad3cc" d="M 620.089844 439.375 C 627.152344 361.773438 624.285156 279.976562 595.582031 206.347656 C 581.675781 170.582031 521.183594 193.765625 532.660156 230.414062 C 554.519531 300.949219 581.894531 368.839844 595.472656 441.914062 C 598.230469 456.707031 618.765625 452.84375 620.089844 439.375 Z M 620.089844 439.375 " fill-opacity="1" fill-rule="nonzero"/><path fill="#4ad3cc" d="M 293.230469 283.730469 C 255.039062 258.78125 218.390625 321.152344 257.464844 344.996094 C 296.101562 368.507812 334.074219 394.558594 369.839844 422.378906 C 405.496094 450.195312 436.957031 482.871094 471.066406 512.453125 C 483.648438 523.382812 501.203125 509.914062 493.917969 494.902344 C 451.527344 407.804688 373.152344 335.945312 293.230469 283.730469 Z M 293.230469 283.730469 " fill-opacity="1" fill-rule="nonzero"/><path fill="#4ad3cc" d="M 264.308594 600.433594 C 288.59375 603.523438 313.210938 604.074219 337.496094 607.71875 C 360.347656 611.140625 382.3125 616.878906 405.273438 619.308594 C 419.292969 620.742188 426.359375 600.761719 416.644531 591.710938 C 377.679688 555.613281 316.855469 534.308594 264.308594 531.441406 C 219.050781 529.121094 221.699219 594.914062 264.308594 600.433594 Z M 264.308594 600.433594 " fill-opacity="1" fill-rule="nonzero"/><path fill="#4ad3cc" d="M 453.734375 700.554688 C 414.65625 703.644531 378.449219 716.558594 340.257812 725.171875 C 302.0625 733.890625 264.863281 742.390625 228.433594 756.851562 C 182.84375 774.953125 215.078125 841.40625 260.335938 825.511719 C 297.976562 812.15625 331.316406 792.617188 366.527344 774.292969 C 399.644531 756.960938 433.09375 743.273438 463.117188 720.863281 C 473.164062 713.359375 464.332031 699.78125 453.734375 700.554688 Z M 453.734375 700.554688 " fill-opacity="1" fill-rule="nonzero"/></svg>