<svg xmlns="http://www.w3.org/2000/svg" xmlns:xlink="http://www.w3.org/1999/xlink" width="1080" zoomAndPan="magnify" viewBox="0 0 810 1012.49997" height="1350" preserveAspectRatio="xMidYMid meet" version="1.0"><defs><clipPath id="d99f8f5056"><path d="M 0.199219 0 L 809.800781 0 L 809.800781 1012 L 0.199219 1012 Z M 0.199219 0 " clip-rule="nonzero"/></clipPath><clipPath id="a7eda1d895"><path d="M 152 174.726562 L 520 174.726562 L 520 599 L 152 599 Z M 152 174.726562 " clip-rule="nonzero"/></clipPath></defs><g clip-path="url(#d99f8f5056)"><path fill="#ffffff" d="M 0.199219 0 L 809.800781 0 L 809.800781 1012 L 0.199219 1012 Z M 0.199219 0 " fill-opacity="1" fill-rule="nonzero"/><path fill="#ffffff" d="M 0.199219 0 L 809.800781 0 L 809.800781 1012 L 0.199219 1012 Z M 0.199219 0 " fill-opacity="1" fill-rule="nonzero"/></g><g clip-path="url(#a7eda1d895)"><path fill="#ebeebd" d="M 212.589844 427.484375 C 208.714844 423.539062 204.769531 419.273438 200.554688 415.296875 C 197.203125 412.132812 192.378906 411.089844 189.359375 407.128906 C 186.449219 403.3125 182.472656 400.332031 179.257812 396.71875 C 177.578125 394.828125 173.121094 396.796875 173.523438 392.0625 C 173.851562 388.3125 169.910156 390.1875 168.144531 388.867188 C 163.769531 385.609375 162.402344 380.402344 159.085938 376.542969 C 159.804688 373.617188 157.675781 372.148438 155.902344 370.621094 C 153.945312 368.941406 152.996094 367.085938 153.222656 364.421875 C 153.46875 361.539062 153.734375 358.527344 153.179688 355.734375 C 152.078125 350.203125 155.132812 345.90625 156.828125 341.207031 C 157.277344 339.964844 159.152344 338.71875 158.933594 337.820312 C 158.007812 334.027344 161.292969 331.890625 161.96875 328.8125 C 162.5625 326.082031 160.550781 322.621094 163.046875 320.628906 C 165.261719 318.863281 164.175781 316.15625 165.964844 314.445312 C 166.878906 313.578125 167.558594 312.144531 167.738281 310.875 C 168.476562 305.707031 170.324219 301.128906 174.257812 297.589844 C 177.074219 295.046875 178.484375 291.542969 180.644531 288.691406 C 183.464844 284.953125 181.324219 281.238281 182.488281 277.707031 C 185.191406 275.003906 187.933594 272.261719 190.671875 269.523438 C 192.726562 267.46875 194.726562 265.351562 196.855469 263.382812 C 198.636719 261.730469 200.28125 260.089844 199.917969 257.378906 C 202.871094 255.96875 202.277344 252.515625 203.957031 250.3125 C 205.007812 248.9375 205.109375 246.84375 206.152344 245.453125 C 207.585938 243.535156 209.339844 241.746094 211.257812 240.320312 C 213.898438 238.359375 214.667969 235.933594 214.355469 232.820312 C 214.277344 232.039062 214.738281 230.804688 215.363281 230.40625 C 219.570312 227.679688 220.335938 222.710938 222.914062 218.9375 C 224.644531 216.402344 225.144531 213.066406 226.703125 210.378906 C 228.296875 207.644531 232.335938 206.441406 231.757812 202.292969 C 234.964844 198.339844 239.519531 195.761719 241.257812 190.222656 C 242.574219 186.015625 249.335938 184.839844 249.214844 179.019531 L 259.054688 174.71875 L 267.722656 174.71875 C 274.6875 179.257812 276.46875 188.15625 283.1875 192.9375 C 283.992188 193.507812 284.152344 195.578125 283.964844 196.859375 C 283.425781 200.523438 287.65625 201.972656 287.582031 205.660156 C 287.539062 207.84375 292.644531 205.203125 292.738281 208.988281 C 292.804688 211.40625 292.753906 213.832031 292.753906 217.207031 C 295.554688 219.503906 298.886719 222.234375 301.371094 224.269531 C 301.652344 228.46875 300.675781 231.386719 303.578125 233.59375 C 305.867188 235.339844 308.25 237.351562 309.625 239.785156 C 310.710938 241.710938 310.683594 244.347656 312.882812 245.65625 C 316.445312 247.785156 316.25 251.140625 315.960938 254.941406 C 323.605469 259.277344 325.640625 267.964844 330.21875 274.832031 C 331.125 276.191406 330.839844 278.261719 332.296875 279.796875 C 333.449219 281.015625 333.714844 283.035156 334.460938 284.664062 C 335.019531 285.886719 335.632812 287.105469 336.367188 288.226562 C 337.363281 289.769531 338.414062 291.296875 339.609375 292.6875 C 340.871094 294.148438 342.222656 295.570312 343.714844 296.785156 C 345.546875 298.277344 344.882812 300.230469 345.082031 302.058594 C 345.183594 302.949219 345.230469 304.214844 345.792969 304.613281 C 349.414062 307.167969 351.09375 311.152344 352.78125 314.84375 C 354.460938 318.515625 356.582031 321.960938 358.074219 325.71875 C 358.734375 327.386719 359 329.527344 360.210938 330.585938 C 363.46875 333.445312 364.664062 337.789062 367.496094 340.601562 C 370.609375 343.683594 370.914062 348.238281 374.4375 350.953125 C 377.480469 353.292969 379.976562 356.347656 382.78125 359.152344 L 382.78125 365.371094 C 385.34375 367.804688 389.117188 370 390.652344 373.25 C 392.097656 376.320312 393.835938 378.78125 396.003906 381.214844 C 396.828125 382.140625 397.023438 383.683594 397.339844 384.988281 C 398.253906 388.714844 400.960938 395.269531 403.316406 396.984375 C 407.320312 399.894531 408.535156 404.617188 411.332031 408.296875 C 413.421875 411.054688 413.632812 415.246094 415.742188 417.984375 C 418.007812 420.921875 420.695312 423.464844 421.742188 427.171875 C 425.980469 429.230469 425.683594 434.464844 428.859375 437.351562 C 429.703125 438.113281 429.207031 440.308594 430.042969 441.125 C 432.734375 443.785156 435.175781 446.5 436.132812 450.269531 C 442.996094 454.976562 444.929688 463.117188 449.484375 469.429688 C 448.265625 472.847656 452.710938 473.898438 452.582031 476.867188 C 452.453125 479.808594 455.101562 480.851562 456.753906 482.347656 C 458.96875 484.363281 458.367188 487.460938 460.640625 489.597656 C 463.597656 492.363281 465.066406 496.765625 468.101562 499.386719 C 471.488281 502.3125 472.175781 506.722656 475.1875 509.601562 C 477.28125 511.601562 478.171875 514.105469 479.460938 516.546875 C 481.359375 520.144531 483.160156 523.6875 484.679688 527.480469 C 486.007812 530.796875 490.546875 532.035156 490.757812 536.65625 C 490.859375 538.929688 496.101562 536.765625 496.007812 539.898438 C 495.890625 543.484375 497.359375 546.070312 499.019531 548.898438 C 500.820312 551.984375 502.148438 555.34375 503.761719 558.542969 C 505.195312 561.398438 505.789062 564.785156 508.878906 566.597656 C 511.558594 568.160156 510.023438 572.207031 512.992188 573.605469 C 513.109375 577.304688 515.757812 579.390625 518.132812 581.644531 C 519.75 583.171875 520.148438 584.980469 518.597656 586.558594 C 517.164062 588.023438 517.136719 590.058594 516.296875 591.398438 C 514.566406 594.171875 511.601562 596.175781 508.792969 598.839844 L 494.949219 598.839844 C 490.667969 596.183594 488.410156 591.230469 482.820312 589.558594 C 478.628906 588.304688 477.347656 581.644531 471.667969 581.484375 C 469.25 579.128906 466.6875 576.914062 464.464844 574.386719 C 462.515625 572.179688 459.136719 573.039062 457.339844 570.363281 C 454.101562 565.554688 448.851562 563.417969 443.785156 561.113281 C 442.554688 560.558594 441.132812 559.976562 440.34375 558.980469 C 435.59375 552.925781 427.371094 551.117188 423.011719 544.640625 C 418.382812 542.855469 414.117188 540.355469 409.753906 538.039062 C 405.328125 535.683594 400.6875 534.011719 396.886719 530.390625 C 394.734375 528.34375 391.230469 527.785156 388.523438 526.226562 C 384.996094 524.199219 380.542969 523.585938 378.066406 519.964844 C 376.539062 517.726562 373.640625 518.277344 372.152344 516.800781 C 370.179688 514.851562 368.023438 515.042969 365.75 514.503906 C 362.757812 513.804688 359.550781 512.585938 357.277344 510.617188 C 354.433594 508.15625 351.390625 506.316406 348.199219 504.410156 C 345.488281 502.796875 343.636719 499.75 340.050781 499.453125 C 337.609375 495.75 333.613281 493.960938 329.886719 492.449219 C 326.191406 490.949219 322.992188 488.394531 318.460938 488.226562 C 314.519531 488.082031 312.957031 481.890625 308.066406 482 C 303.753906 476.085938 296.191406 475.339844 290.734375 471.167969 C 288.683594 469.605469 285.78125 469.183594 283.304688 468.140625 C 282.480469 467.792969 281.464844 467.289062 281.089844 466.570312 C 278.921875 462.398438 273.382812 462.921875 271.007812 459.367188 C 268.734375 455.957031 264.269531 456.535156 261.71875 453.378906 C 259.828125 451.03125 256.695312 448.976562 253.78125 448.351562 C 250.65625 447.679688 248.6875 446.085938 246.859375 443.980469 C 245.457031 442.355469 243.839844 441.496094 241.84375 442.066406 C 238.035156 443.167969 236.714844 437.695312 232.964844 438.875 C 230.03125 434.320312 223.972656 433.820312 220.851562 429.597656 C 218.6875 426.671875 215.730469 427.695312 212.625 427.46875 Z M 225.675781 342.035156 C 225.21875 341.476562 224.828125 340.824219 224.269531 340.382812 C 224.007812 340.171875 223.261719 340.179688 223.050781 340.398438 C 222.835938 340.613281 222.828125 341.359375 223.039062 341.613281 C 223.496094 342.15625 224.117188 342.589844 224.753906 342.933594 C 224.863281 342.988281 225.332031 342.375 211.378906 286.625 L 211.378906 301.109375 C 216.46875 304.632812 213.386719 309.949219 214.355469 314.375 C 214.632812 315.617188 215.636719 316.769531 216.492188 317.8125 C 218.410156 320.144531 215.726562 323.570312 218.5 325.691406 C 221.320312 327.855469 219.730469 331.007812 220.082031 333.707031 C 220.328125 335.566406 220.335938 337.457031 220.578125 339.3125 C 220.625 339.6875 221.15625 340.152344 221.566406 340.3125 C 222.988281 340.867188 222.699219 339.949219 223.175781 338.972656 C 224.074219 337.140625 226.347656 336.617188 223.941406 333.570312 C 221.785156 330.824219 222.25 326.488281 224.335938 323.011719 C 224.734375 322.351562 225.457031 321.109375 225.371094 321.042969 C 221.371094 318.175781 223.132812 313.988281 223.066406 310.382812 C 222.871094 299.769531 223.03125 289.140625 222.929688 278.523438 C 222.929688 277.8125 221.902344 276.527344 221.367188 276.53125 C 220.070312 276.554688 217.6875 277.125 217.664062 277.574219 C 217.449219 282 213.699219 283.796875 225.675781 342.035156 Z M 333.417969 415.890625 C 333.417969 417.339844 333.664062 418.839844 333.367188 420.214844 C 332.570312 423.90625 335.800781 425.078125 337.515625 427.1875 C 337.582031 427.265625 338.234375 427.007812 338.488281 426.765625 C 338.804688 426.464844 339.21875 426.007812 339.195312 425.644531 C 338.957031 421.871094 335.648438 419.445312 334.808594 415.90625 C 334.78125 415.796875 333.902344 415.890625 333.417969 415.949219 C 333.375 406.867188 333.542969 406.773438 329.195312 398.804688 C 328.242188 397.050781 327.265625 395.535156 327.65625 393.648438 C 328.261719 390.742188 325.027344 389.796875 324.78125 387.578125 C 324.460938 384.710938 324.851562 381.773438 324.636719 378.890625 C 324.542969 377.617188 323.757812 376.371094 323.171875 375.167969 C 322.203125 373.148438 321.328125 371.042969 320.050781 369.222656 C 318.957031 367.660156 317.371094 366.449219 316.070312 365.148438 C 315.394531 360.890625 317.878906 355.84375 314.808594 352.613281 C 311.035156 348.636719 315.207031 343.367188 311.09375 339.421875 C 308.421875 336.855469 307.675781 332.273438 306.128906 328.730469 C 304.78125 328.730469 303.8125 328.652344 302.847656 328.753906 C 301.515625 328.882812 300.191406 329.144531 298.765625 329.371094 C 300.769531 333.28125 302.839844 336.675781 304.257812 340.324219 C 305.257812 342.882812 303.007812 346.292969 305.382812 348.527344 C 308.414062 351.375 306.800781 354.792969 307.25 357.949219 C 307.316406 358.414062 307.164062 359.195312 307.386719 359.3125 C 310.292969 360.796875 309.34375 364.667969 311.53125 366.285156 C 314.800781 368.703125 311.441406 372.808594 314.441406 375.363281 C 316.019531 376.710938 316.265625 379.511719 317.683594 381.171875 C 320.203125 384.109375 317.011719 389.214844 321.710938 391.140625 C 321.730469 393.554688 321.550781 395.984375 321.871094 398.355469 C 322.035156 399.597656 323.164062 400.691406 323.738281 401.910156 C 325.0625 404.742188 326.335938 407.601562 327.589844 410.46875 C 328.75 413.132812 330.414062 415.226562 333.410156 415.914062 Z M 277.976562 432.109375 C 277.519531 431.554688 277.128906 430.902344 276.570312 430.460938 C 276.308594 430.25 275.5625 430.257812 275.355469 430.472656 C 275.136719 430.691406 275.128906 431.4375 275.339844 431.691406 C 275.796875 432.234375 276.417969 432.667969 277.054688 433.007812 C 277.164062 433.066406 277.632812 432.453125 275.265625 430.460938 C 275.390625 428.042969 275.664062 425.753906 273.304688 423.941406 C 271.617188 422.648438 260.5625 403.257812 260.921875 401.613281 C 261.863281 397.382812 256.960938 395.023438 257.9375 391.179688 C 259.003906 386.976562 256.59375 383.964844 254.890625 380.78125 C 253.117188 377.449219 251.292969 374.34375 251.972656 370.308594 C 252.175781 369.109375 251.371094 367.738281 250.878906 365.863281 C 249.488281 367.398438 248.589844 368.519531 247.5625 369.511719 C 245.964844 371.042969 245.722656 372.648438 246.96875 374.488281 C 247.730469 375.617188 248.96875 376.746094 249.054688 377.949219 C 249.324219 381.800781 249.402344 385.710938 249.039062 389.550781 C 248.882812 391.199219 247.449219 392.71875 246.441406 394.582031 C 246.5625 395.625 250.351562 395.695312 247.917969 398.265625 C 247.289062 398.933594 246.375 399.707031 246.324219 400.484375 C 246.035156 404.632812 247.1875 409.046875 243.457031 412.464844 C 243.167969 412.726562 244.21875 415.515625 245.050781 415.761719 C 249.996094 417.222656 254.457031 419.316406 257.976562 423.203125 C 258.554688 423.84375 259.640625 424.683594 260.265625 424.523438 C 264.984375 423.304688 267.324219 426.6875 269.886719 429.433594 C 271.574219 431.234375 273.535156 429.976562 277.980469 432.109375 Z M 376.75 490.015625 C 378.71875 491.539062 380.449219 493.078125 382.375 494.316406 C 385.859375 496.539062 390.230469 496.585938 393.757812 498.316406 C 398.167969 500.472656 403.175781 501.871094 406.769531 505.367188 C 410.476562 508.972656 416.015625 510.046875 418.957031 514.542969 C 420.765625 517.308594 423.320312 518.125 426.398438 517.574219 C 428.261719 517.242188 429.136719 518.617188 429.847656 519.695312 C 432.070312 523.050781 436.433594 522.941406 439.003906 525.773438 C 441.808594 528.851562 444.480469 532.289062 449.042969 532.992188 C 451.867188 537.675781 458.195312 537.726562 461.222656 542.195312 C 461.589844 542.746094 462.546875 542.902344 463.226562 543.246094 C 463.507812 541.933594 464.464844 539.898438 463.964844 539.4375 C 460.828125 536.523438 460.96875 531.550781 456.96875 529.117188 C 455.101562 527.980469 453.023438 525.730469 452.769531 523.757812 C 452.394531 520.804688 448.40625 519.640625 449.636719 516.285156 C 447.273438 513.882812 444.710938 511.628906 442.613281 509.015625 C 441.234375 507.308594 440.527344 505.070312 439.246094 502.523438 C 437.324219 505.484375 435.601562 508.148438 433.460938 511.457031 L 421.683594 511.457031 C 418.289062 508.0625 415.101562 504.339844 411.359375 501.328125 C 408.890625 499.34375 409.6875 495.96875 407.339844 494.222656 C 405.421875 492.804688 406.039062 490.761719 406.097656 488.953125 C 406.183594 485.996094 406.195312 483.175781 403.257812 481.40625 C 404.316406 478.089844 400.347656 476.894531 400.164062 473.957031 C 400 471.203125 401.65625 467.910156 399.09375 465.78125 C 396.742188 463.820312 397.820312 460.394531 395.160156 458.554688 C 393.929688 457.699219 394.097656 455 392.933594 453.820312 C 390.859375 451.726562 392.09375 449.273438 391.433594 447.128906 C 390.925781 445.457031 389.085938 444.136719 388.738281 442.472656 C 388.261719 440.15625 388.558594 437.65625 388.636719 435.246094 C 388.703125 433.296875 388.71875 431.445312 386.886719 430.15625 C 384.902344 428.757812 386.234375 426.558594 385.65625 424.863281 C 384.9375 422.761719 383.519531 420.886719 382.875 418.773438 C 382.0625 416.121094 384.242188 412.726562 381.6875 410.613281 C 379.3125 408.644531 379.917969 405.558594 377.886719 403.3125 C 376.242188 401.496094 376.097656 398.035156 373.535156 396.566406 C 370.703125 394.9375 371.511719 391.582031 369.601562 389.390625 C 367.617188 387.109375 366.710938 383.878906 365.402344 381.035156 C 365.222656 380.636719 365.582031 379.882812 365.335938 379.628906 C 362.648438 376.839844 360.128906 373.828125 357.105469 371.46875 C 353.25 368.457031 353.453125 362.722656 348.992188 360.214844 C 348.386719 359.875 348.101562 358.660156 347.972656 357.796875 C 347.414062 354.132812 343.382812 353.132812 342.164062 350.042969 C 341.839844 349.210938 342.078125 348.144531 341.746094 347.3125 C 341.210938 345.945312 340.421875 345.929688 339.734375 347.140625 C 336.929688 353.0625 341.714844 355.734375 345.039062 359.289062 C 345.039062 361.496094 344.664062 363.964844 345.148438 366.261719 C 345.597656 368.390625 346.988281 370.308594 347.945312 372.335938 C 349.492188 375.640625 352.035156 378.628906 350.882812 382.75 C 350.296875 384.847656 352.273438 386.082031 352.890625 387.695312 C 354.335938 391.503906 356.386719 394.988281 358.285156 398.511719 C 360.507812 402.664062 359.457031 406.898438 359.449219 411.046875 C 359.441406 415.074219 362.390625 417.605469 363.503906 421.046875 C 364.140625 423.023438 366.871094 424.328125 368.347656 425.660156 L 368.347656 437.796875 C 370.121094 439.570312 372.1875 441.054688 373.4375 443.050781 C 374.605469 444.921875 374.980469 447.148438 376.40625 449.121094 C 377.574219 450.734375 377.117188 453.710938 376.957031 456.054688 C 376.625 460.945312 383.988281 461.429688 382.925781 466.730469 C 382.851562 467.078125 384.257812 467.808594 385.046875 468.230469 C 386.203125 468.835938 387.4375 469.320312 388.628906 469.859375 C 386.820312 473.601562 393.765625 474.746094 391.121094 478.910156 C 386.726562 482.703125 383.367188 488.191406 376.753906 490.074219 Z M 298.792969 422.914062 C 299.691406 424.449219 300.921875 425.59375 300.792969 426.558594 C 300.625 427.765625 298.589844 428.882812 298.675781 429.929688 C 299.082031 434.628906 294.324219 432.421875 292.871094 434.585938 C 291.042969 437.316406 290.160156 434.3125 288.765625 433.863281 C 287.027344 433.296875 285.035156 433.328125 283.175781 433.414062 C 282.515625 433.441406 281.90625 434.414062 281.277344 434.957031 C 281.617188 435.296875 281.90625 435.8125 282.3125 435.949219 C 283.59375 436.375 285.070312 436.40625 286.199219 437.054688 C 288.605469 438.441406 289.511719 441.640625 292.839844 442.117188 C 296.433594 442.640625 297.96875 446.136719 300.394531 448.324219 C 303.542969 451.175781 307.335938 452.632812 311.285156 453.558594 C 313.109375 453.984375 315.085938 453.609375 316.316406 455.464844 C 321.476562 463.210938 331.984375 463.609375 337.546875 470.828125 C 337.757812 471.097656 338.472656 471.199219 338.855469 471.074219 C 342.578125 469.859375 344.859375 474.070312 347.800781 473.78125 C 351.121094 473.457031 353.25 476.300781 356.648438 476.214844 C 356.648438 473.90625 357.4375 471.277344 356.496094 470.261719 C 353.894531 467.484375 354.359375 462.980469 350.832031 460.914062 C 352.753906 456.214844 348.386719 453.195312 347.539062 449.171875 C 346.929688 446.257812 343.78125 443.957031 342.78125 441.039062 C 341.753906 438.035156 341.96875 434.59375 341.566406 431.359375 C 341.519531 431.03125 340.921875 430.777344 340.585938 430.496094 C 338.625 431.84375 339.652344 433.992188 339.132812 435.703125 C 338.488281 437.816406 337.292969 439.773438 336.300781 441.777344 C 333.375 447.695312 328.503906 449.988281 322.761719 447.011719 C 320.761719 445.976562 318.285156 445.660156 316.714844 444.117188 C 313.417969 440.886719 308.625 438.332031 310.152344 432.355469 C 307.222656 428.316406 305.15625 423.835938 303.796875 420.410156 C 302.347656 421.132812 300.398438 422.097656 298.777344 422.902344 Z M 201.207031 381.027344 C 203.566406 370.824219 203.363281 367.09375 199.707031 359.714844 C 199.105469 358.492188 197.3125 357.652344 197.128906 356.472656 C 196.695312 353.664062 197.8125 350.257812 196.601562 348.015625 C 195.253906 345.507812 193.617188 343.511719 193.878906 340.40625 C 194.160156 337.050781 194.046875 333.65625 193.84375 330.289062 C 193.804688 329.730469 192.539062 328.972656 191.742188 328.796875 C 190.925781 328.625 189.738281 328.777344 189.121094 329.28125 C 187.320312 330.78125 188.601562 333.824219 186.074219 335.292969 C 184.539062 336.191406 182.257812 338.421875 182.539062 339.382812 C 183.851562 343.773438 179.585938 346.167969 179.449219 349.816406 C 179.289062 354.089844 179.410156 358.371094 179.410156 362.140625 C 182.285156 365.015625 184.675781 367.40625 187.058594 369.789062 C 189.101562 371.832031 191.425781 373.675781 193.125 375.972656 C 195.226562 378.8125 199.664062 377.558594 201.207031 381.027344 Z M 259.671875 212.246094 C 256.390625 215.847656 253.167969 219.394531 249.15625 223.796875 C 249.15625 230.582031 248.851562 238.777344 249.292969 246.9375 C 249.480469 250.429688 253.023438 253.058594 252.226562 257.375 C 251.453125 261.582031 252.03125 266.039062 252.066406 270.386719 C 252.097656 273.664062 253.320312 274.003906 257.46875 272.230469 C 256.644531 270.667969 255.121094 269.082031 255.078125 267.460938 C 254.832031 259.253906 255.015625 251.03125 254.914062 242.820312 C 254.898438 241.523438 254.550781 239.914062 253.738281 239.011719 C 251.871094 236.953125 251.753906 235.484375 253.253906 232.898438 C 256.800781 226.800781 259.734375 220.386719 268.402344 220.75 C 268.734375 220.761719 269.394531 219.226562 269.417969 218.402344 C 269.4375 217.578125 269.082031 216.265625 268.496094 215.976562 C 265.695312 214.609375 262.753906 213.515625 259.664062 212.242188 Z M 284.160156 250.25 C 281.898438 250.328125 281.320312 251.371094 282.074219 252.679688 C 282.730469 253.824219 283.78125 254.925781 283.941406 256.136719 C 284.238281 258.460938 283.753906 260.898438 284.1875 263.179688 C 284.324219 263.910156 286.34375 264.65625 287.539062 264.707031 C 289.003906 264.765625 290.394531 263.652344 289.777344 262.027344 C 288.519531 258.710938 285.730469 255.917969 286.78125 251.828125 C 286.867188 251.484375 284.730469 250.582031 284.164062 250.25 Z M 290.039062 276.835938 C 289.511719 275.578125 289.214844 274.757812 288.808594 274 C 288.742188 273.882812 288.089844 273.902344 287.867188 274.070312 C 286.410156 275.148438 286.394531 278.242188 287.96875 278.734375 C 288.4375 278.886719 289.414062 277.429688 290.039062 276.835938 Z M 290.039062 276.835938 " fill-opacity="1" fill-rule="nonzero"/></g><path fill="#ebeebd" d="M 153.273438 673.089844 C 153.273438 666.390625 153.34375 659.628906 153.226562 652.863281 C 153.191406 650.824219 153.816406 649.402344 155.105469 647.773438 C 156.828125 645.601562 156.769531 645.152344 155.007812 642.960938 C 153.714844 641.34375 152.257812 639.308594 153.632812 638.070312 C 156.199219 635.785156 155.851562 633.140625 156.320312 630.34375 C 156.746094 627.773438 159.875 626.117188 159.203125 622.785156 C 158.984375 621.707031 159.890625 620.105469 160.746094 619.164062 C 163.34375 616.296875 166.175781 613.640625 168.914062 610.902344 C 169.832031 610.789062 170.765625 610.542969 171.679688 610.59375 C 174.972656 610.757812 179.085938 609.898438 181.351562 611.546875 C 184.125 613.5625 187.425781 612.257812 189.179688 613.699219 C 192.105469 616.101562 194.929688 616.40625 198.324219 616.457031 C 202.4375 616.507812 207.078125 614.902344 210.199219 619.289062 C 214.046875 619.355469 217.898438 619.410156 221.742188 619.476562 C 224.90625 623.996094 229.632812 621.679688 233.695312 622.140625 C 236.46875 622.460938 239.570312 621.460938 241.410156 624.609375 C 243.8125 624.304688 245.558594 620.050781 248.339844 622.988281 C 250.292969 625.050781 252.363281 625.101562 254.78125 625.125 C 258.484375 625.160156 262.601562 623.910156 265.203125 628 C 267.917969 627.671875 271.097656 629.152344 273.066406 625.914062 C 273.667969 624.929688 274.324219 625.191406 275.136719 626.328125 C 275.96875 627.492188 276.648438 627.679688 278.265625 626.703125 C 282.558594 624.117188 287.453125 623.125 290.886719 627.820312 C 293.09375 630.835938 297.121094 630.003906 299.039062 632.871094 C 299.820312 634.039062 300.25 633.902344 301.144531 632.75 C 302.839844 630.5625 304.859375 629.960938 307.113281 632.175781 C 307.765625 632.816406 308.554688 633.699219 309.335938 633.757812 C 313.484375 634.054688 317.964844 632.820312 321.203125 636.730469 L 334.28125 636.730469 C 337.523438 640.605469 341.992188 639.460938 346.148438 639.664062 C 347.503906 639.730469 349.609375 639.707031 350.058594 640.484375 C 352.273438 644.328125 356.539062 641.140625 359.117188 643.453125 C 360.09375 644.328125 361.570312 645.5 362.613281 645.320312 C 367.550781 644.480469 370.722656 649.402344 376.003906 648.652344 C 380.296875 648.035156 385.265625 646.5 389.660156 650.527344 C 392.628906 653.25 398.289062 649.105469 401.394531 653.703125 C 401.742188 654.21875 403.140625 654.089844 404.0625 654.144531 C 407.296875 654.34375 410.46875 653.574219 413.292969 656.679688 C 414.886719 658.425781 418.839844 655.882812 421.035156 658.859375 C 422.773438 661.222656 425.53125 659.640625 427.8125 659.925781 C 429.722656 660.15625 431.679688 659.976562 433.863281 659.976562 C 435.421875 661.589844 437.023438 663.40625 438.816406 665.015625 C 439.417969 665.550781 440.65625 665.949219 441.351562 665.703125 C 442.914062 665.160156 444.269531 663.675781 445.804688 663.53125 C 446.839844 663.4375 447.96875 665.558594 449.15625 665.675781 C 452.515625 665.992188 456.355469 664.804688 459.199219 666.050781 C 462.210938 667.375 464.769531 669.089844 468.289062 668.742188 C 471.574219 668.425781 474.933594 668.128906 477.390625 671.472656 C 477.902344 672.167969 480.15625 671.589844 481.605469 671.589844 C 484.992188 671.589844 488.484375 672.105469 491.75 671.453125 C 495.261719 670.75 496.257812 674.8125 499.292969 674.523438 C 500.710938 674.382812 502.152344 674.5 502.566406 674.5 C 506.699219 678.339844 510.226562 681.609375 513.382812 684.542969 C 515.558594 689.816406 510.445312 692.558594 510.140625 696.722656 C 510.113281 697.121094 508.589844 697.699219 507.765625 697.691406 C 504.796875 697.679688 503.746094 702.058594 500.328125 700.84375 C 498.539062 703.828125 495.644531 703.492188 492.746094 703.679688 C 491.582031 703.753906 490.34375 705.027344 489.417969 706.011719 C 487.390625 708.15625 485.441406 710.132812 482.058594 709.429688 C 481.269531 709.269531 479.84375 709.582031 479.546875 710.132812 C 477.976562 713.015625 474.203125 711.574219 472.371094 714.144531 C 470.714844 716.476562 467.164062 713.972656 465.769531 715.382812 C 463.4375 717.734375 461.0625 718.089844 458.085938 718.175781 C 455.390625 718.265625 453.894531 722.039062 450.5625 721.007812 C 447.722656 720.132812 446.78125 723.6875 444.5 723.824219 C 441.640625 724 438.679688 723.492188 436.875 726.519531 C 431.53125 725.910156 427.925781 728.714844 425.097656 732.679688 L 416.183594 732.679688 C 414.199219 736.265625 409.144531 735.25 407.082031 738.820312 C 405.734375 741.144531 403.429688 741.683594 400.875 741.335938 C 400.398438 741.269531 399.796875 741.136719 399.441406 741.355469 C 396.328125 743.214844 393.359375 746.476562 390.152344 746.722656 C 386.199219 747.027344 383.140625 748.597656 379.773438 750.007812 C 374.417969 752.269531 369.855469 756.625 363.496094 756.300781 C 359.679688 760.507812 353.207031 760.175781 349.472656 764.519531 C 346.617188 763.882812 345.054688 765.808594 343.5 767.613281 C 341.863281 769.515625 340.085938 770.933594 337.363281 770.378906 C 333.832031 769.652344 331.3125 771.917969 328.3125 773.0625 C 325.019531 774.324219 322.230469 778.007812 317.980469 776.183594 C 315.554688 779.152344 311.023438 778.609375 308.71875 781.949219 C 305.894531 786.046875 302.078125 788.59375 296.785156 788.191406 C 296.476562 788.167969 296.164062 788.992188 295.75 789.144531 C 291.550781 790.703125 288.121094 794.46875 283.074219 793.621094 C 281.132812 795.726562 278.140625 795.980469 276 797.5 C 272.980469 799.636719 271.003906 803.519531 266.347656 802.339844 C 263.183594 804.402344 259.953125 806.011719 255.910156 805.34375 C 254.761719 805.15625 253.050781 805.835938 252.226562 806.707031 C 250.648438 808.371094 248.808594 807.9375 246.976562 808.210938 C 245.6875 808.398438 244.507812 809.226562 243.253906 809.710938 C 242.003906 810.195312 240.25 810.238281 239.539062 811.128906 C 237.351562 813.867188 233.890625 814.15625 231.15625 815.65625 C 227.316406 817.746094 223.507812 821.253906 218.367188 819.78125 C 215.5 818.964844 214.414062 821.949219 212.300781 822.65625 C 206.96875 824.429688 202.082031 826.847656 198.398438 831.402344 L 186.863281 831.402344 C 181.773438 837.277344 175.03125 832.902344 169.507812 834.53125 C 166.8125 831.839844 164.414062 829.441406 162.019531 827.042969 C 162.019531 824.625 162.214844 822.1875 161.976562 819.78125 C 161.519531 815.25 163.9375 810.050781 159.117188 806.453125 C 159.171875 803.570312 159.230469 800.6875 159.289062 797.804688 C 164.175781 793.5625 161.535156 788.109375 161.664062 783.101562 C 156.667969 781.585938 164.878906 776.214844 159.261719 774.882812 C 159.847656 774.195312 160.644531 773.601562 160.96875 772.804688 C 161.476562 771.566406 162.308594 769.347656 161.882812 769.03125 C 159.171875 766.996094 159.070312 764.359375 159.050781 761.371094 C 159.015625 756.773438 160.367188 751.832031 156.269531 747.972656 C 155.785156 747.519531 156.3125 746.089844 156.191406 745.144531 C 155.300781 738.269531 158.246094 730.992188 153.476562 724.425781 C 152.324219 722.839844 153.300781 719.707031 153.300781 717.285156 C 153.300781 706.636719 153.214844 695.976562 153.367188 685.324219 C 153.402344 682.695312 152.273438 681.0625 150.824219 679.046875 C 149.09375 676.628906 151.410156 674.761719 153.300781 673.097656 Z M 210.878906 646.226562 C 205.90625 644.726562 201.714844 641.070312 196.238281 642.523438 C 191.480469 638 185.789062 639.796875 180.570312 639.867188 C 180.011719 640.539062 179.457031 640.894531 179.457031 641.257812 C 179.40625 649.933594 179.417969 658.605469 179.417969 667.222656 C 177.515625 669.300781 174.320312 671.082031 177.761719 674.246094 C 179.332031 675.695312 180.339844 677.722656 178.941406 679.097656 C 176.769531 681.242188 177.136719 682.199219 178.863281 684.484375 C 179.910156 685.882812 179.753906 689.792969 178.558594 690.953125 C 175.742188 693.6875 177.738281 694.722656 179.390625 696.203125 C 178.433594 697.246094 177.507812 698.257812 176.949219 698.875 C 177.847656 700.726562 179.152344 702.296875 179.304688 703.972656 C 179.695312 708.25 179.503906 712.574219 179.765625 716.867188 C 179.796875 717.308594 181.242188 717.933594 182.070312 717.996094 C 182.894531 718.054688 184.4375 717.613281 184.503906 717.214844 C 184.914062 714.433594 184.699219 711.539062 185.3125 708.824219 C 185.890625 706.253906 189.085938 704.609375 188.136719 701.320312 C 186.566406 695.855469 190.273438 691.648438 191.699219 686.890625 C 194.660156 685.5 193.335938 681.769531 195.710938 679.808594 C 198.265625 677.699219 196.179688 674.347656 196.898438 671.667969 C 197.230469 670.410156 198.203125 669.332031 198.816406 668.136719 C 200.0625 665.738281 200.546875 663.101562 202.792969 661.023438 C 205.039062 658.941406 206.441406 655.882812 207.976562 653.117188 C 209.046875 651.183594 209.714844 649.027344 210.875 646.226562 Z M 449.742188 693.347656 C 447.179688 690.921875 443.769531 693.140625 442.554688 691.761719 C 439.847656 688.699219 436.738281 689.0625 433.421875 688.953125 C 432.125 688.910156 430.339844 688.613281 429.65625 687.746094 C 427.40625 684.882812 423.523438 687.492188 421.859375 685.628906 C 419.050781 682.496094 415.820312 683.183594 412.613281 683.269531 C 410.332031 683.335938 409.363281 681.710938 407.820312 680.707031 C 406 679.519531 403.324219 680.300781 403.308594 682.105469 C 403.277344 685.964844 398.289062 688.09375 400.128906 692.566406 C 400.605469 693.726562 398.976562 694.457031 397.40625 694.957031 C 393.257812 696.296875 390.355469 699.453125 388.679688 703.433594 C 386.3125 709.074219 383.171875 714.09375 378.484375 718.097656 C 377.828125 718.664062 377.226562 719.5625 377.089844 720.386719 C 376.945312 721.210938 377.261719 722.21875 377.652344 723.007812 C 378.1875 724.101562 378.90625 723.882812 379.6875 722.6875 C 381.324219 720.183594 384.226562 721.746094 386.148438 720.820312 C 388.601562 719.625 390.449219 717.238281 392.707031 715.558594 C 393.351562 715.078125 394.53125 715.078125 395.421875 715.195312 C 399.789062 715.796875 402.570312 710.089844 407.289062 712.253906 C 409.1875 707.300781 414.320312 710.726562 417.296875 708.351562 C 421.199219 705.238281 426.585938 704.71875 430.265625 701.140625 C 435.542969 701.84375 439.433594 697.078125 444.835938 697.492188 C 446.332031 697.605469 448.058594 694.855469 449.765625 693.339844 Z M 227.359375 706.449219 C 229.75 704.058594 232.132812 701.675781 234.515625 699.292969 C 232.957031 695.464844 239.179688 694.304688 237.550781 690.453125 C 241.011719 688.910156 240.570312 684.921875 242.355469 682.269531 C 244.101562 679.683594 245.171875 676.609375 247.699219 674.433594 C 248.351562 673.878906 249.230469 672.792969 249.070312 672.199219 C 247.84375 667.527344 251.269531 665.328125 253.78125 662.53125 C 255.585938 660.527344 255.289062 657.40625 257.757812 655.433594 C 259.242188 654.253906 257.546875 650.980469 255.609375 651.328125 C 250.691406 652.207031 246.621094 650.003906 243.03125 648.085938 C 238.195312 652.945312 233.820312 657.347656 228.816406 662.363281 C 228.816406 663.175781 229.621094 665.890625 228.664062 666.832031 C 225.933594 669.519531 225.695312 672.488281 225.847656 675.882812 C 225.90625 677.179688 225.695312 679.136719 224.863281 679.691406 C 222.234375 681.464844 223.253906 684.804688 221.0625 686.976562 C 219.367188 688.648438 218.398438 691.605469 217.390625 694 C 216.390625 696.398438 217.40625 699.25 214.949219 701.742188 C 212.902344 703.820312 214.507812 706.410156 217.265625 706.441406 C 220.632812 706.484375 224 706.449219 227.355469 706.449219 Z M 252.398438 722.78125 C 253.863281 724.722656 255.949219 723.695312 257.757812 723.820312 C 258.570312 723.875 260.097656 723.355469 260.164062 722.929688 C 261.140625 716.546875 266.992188 714.066406 270.582031 709.835938 C 273.703125 706.164062 277.359375 702.941406 280.777344 699.523438 C 279.871094 695.855469 284.78125 694.382812 284.179688 690.683594 C 284.121094 690.316406 286.375 689.613281 287.519531 689.003906 C 288.316406 688.578125 289.707031 688.070312 289.726562 687.554688 C 289.972656 681.25 296.289062 679.707031 299.0625 675.425781 C 299.804688 674.277344 300.871094 673.269531 301.355469 672.023438 C 301.625 671.34375 301.238281 670.078125 300.691406 669.503906 C 300.148438 668.941406 299.011719 668.65625 298.183594 668.746094 C 297.359375 668.832031 296.445312 669.375 295.832031 669.976562 C 292.363281 673.34375 288.921875 676.746094 285.554688 680.222656 C 282.328125 683.550781 279.054688 686.613281 277.097656 691.21875 C 275.359375 695.304688 270.488281 697.347656 268.84375 702.335938 C 267.605469 706.085938 262.144531 707.765625 260.84375 712.042969 C 259.386719 716.832031 254.398438 718.582031 252.386719 722.78125 Z M 359.449219 671.84375 C 359.925781 677.109375 358.074219 681.667969 362.316406 684.804688 C 361.636719 685.484375 360.925781 686.144531 360.289062 686.859375 C 360.066406 687.113281 359.855469 687.800781 359.90625 687.832031 C 360.679688 688.265625 361.460938 688.808594 362.308594 688.976562 C 364.683594 689.445312 365.472656 687.214844 366.851562 686.042969 C 369.015625 684.195312 370.949219 682.066406 373.207031 680.359375 C 374.183594 679.621094 375.734375 679.628906 376.988281 679.300781 C 376.605469 676.644531 377.890625 674.183594 375.863281 671.835938 L 359.457031 671.835938 Z M 356.5625 693.4375 C 356.03125 693.109375 355.027344 692.269531 354.84375 692.421875 C 353.425781 693.601562 351.816406 694.789062 350.984375 696.355469 C 350.527344 697.214844 351.449219 698.816406 351.746094 700.082031 C 352.40625 699.800781 353.199219 699.664062 353.6875 699.207031 C 355.316406 697.664062 357.507812 696.355469 356.5625 693.441406 Z M 341.136719 668.214844 C 341.46875 667.882812 341.796875 667.558594 342.128906 667.222656 C 341.796875 666.890625 341.519531 666.390625 341.121094 666.269531 C 340.289062 666 339.339844 665.675781 338.53125 665.839844 C 337.726562 666.007812 337.046875 666.738281 336.316406 667.222656 C 337.046875 667.707031 337.734375 668.441406 338.53125 668.605469 C 339.335938 668.773438 340.261719 668.375 341.128906 668.214844 Z M 341.136719 668.214844 " fill-opacity="1" fill-rule="nonzero"/><path fill="#ebeebd" d="M 533.90625 379.570312 C 532.03125 377.695312 530.320312 375.988281 528.089844 373.757812 C 528.089844 371.925781 528.46875 369.492188 527.980469 367.246094 C 527.519531 365.117188 526.164062 363.183594 525.1875 361.171875 C 523.363281 357.429688 522.234375 353.671875 522.03125 349.316406 C 521.871094 345.914062 518.054688 343.003906 519.378906 338.898438 C 515.832031 336.75 516.402344 333.265625 516.460938 329.941406 C 516.476562 329 516.679688 327.40625 516.257812 327.203125 C 511.847656 325.03125 515.019531 319.914062 512.226562 317.175781 C 511.589844 316.546875 510.792969 315.71875 510.726562 314.925781 C 510.414062 311.136719 510.328125 307.328125 510.164062 303.527344 C 506.441406 301.238281 507.933594 297.539062 507.808594 294.359375 C 507.679688 291.035156 503.71875 289.296875 504.71875 285.367188 C 505.414062 282.636719 504.917969 279.589844 504.832031 276.691406 C 504.730469 273.449219 500.902344 271.636719 501.800781 267.699219 C 502.53125 264.476562 501.949219 260.957031 501.949219 257.570312 C 496.339844 252.992188 499.726562 246.773438 499.179688 241.339844 C 498.589844 235.59375 498.589844 229.691406 499.234375 223.957031 C 499.5625 221.03125 501.871094 218.332031 503.285156 215.527344 C 506.59375 216.554688 507.789062 212.464844 510.742188 212.472656 C 514.449219 212.472656 518.46875 213.378906 521.152344 209.597656 C 524.542969 209.597656 527.96875 209.902344 531.296875 209.46875 C 532.933594 209.25 534.507812 206.6875 535.894531 206.867188 C 541.277344 207.546875 545.207031 202.082031 550.695312 203.734375 C 551.464844 203.964844 552.660156 203.683594 553.324219 203.195312 C 558.320312 199.527344 563.628906 197.011719 570.050781 197.984375 C 573.511719 192.058594 581.601562 198.097656 585.0625 192.167969 C 588.667969 191.65625 592.542969 193.550781 595.851562 190.019531 C 597.980469 187.746094 602.644531 190.859375 604.714844 186.882812 C 604.976562 186.390625 606.421875 186.433594 607.335938 186.375 C 610.644531 186.160156 614.675781 187.085938 617.066406 185.507812 C 619.40625 183.964844 622.46875 184.136719 624.375 181.785156 C 625.074219 180.917969 626.847656 180.632812 628.152344 180.597656 C 632.988281 180.46875 637.972656 181.25 642.628906 180.328125 C 646.726562 179.519531 647.761719 185.152344 651.621094 183.472656 C 653.0625 186.261719 655.023438 188.917969 655.804688 191.878906 C 656.523438 194.59375 655.597656 197.707031 656.074219 200.53125 C 656.4375 202.652344 658.753906 204.617188 658.6875 206.601562 C 658.542969 211.117188 660.890625 216.347656 655.957031 219.914062 C 656.980469 225.796875 653.546875 232.289062 658.722656 237.722656 C 659.628906 238.667969 659.441406 242.230469 658.449219 243.117188 C 655.871094 245.410156 655.9375 248.019531 655.945312 250.898438 C 655.980469 263 656.066406 275.097656 655.894531 287.191406 C 655.84375 290.804688 657.371094 294.78125 653.621094 297.9375 C 652.613281 298.792969 653.074219 301.527344 653.070312 303.410156 C 653.027344 313.09375 653.226562 322.773438 652.960938 332.441406 C 652.84375 336.5 654.734375 341.171875 650.453125 344.453125 C 650.179688 344.664062 650.15625 345.308594 650.15625 345.753906 C 650.136719 349.144531 651.214844 353.070312 649.859375 355.777344 C 648.347656 358.804688 646.914062 361.394531 647.183594 364.878906 C 647.441406 368.246094 647.085938 371.65625 647.285156 375.03125 C 647.457031 378.050781 647.132812 380.714844 644.378906 382.523438 C 646.261719 384.109375 647.617188 385.796875 647.3125 388.609375 C 647 391.476562 646.820312 394.488281 647.347656 397.289062 C 647.992188 400.683594 644.089844 401.671875 644.242188 404.820312 C 644.464844 409.417969 645.503906 414.371094 641.433594 418.128906 C 641.433594 422.964844 641.96875 427.882812 641.265625 432.625 C 640.679688 436.59375 637.796875 440.011719 638.421875 444.527344 C 638.941406 448.332031 638.527344 452.253906 638.527344 456.128906 C 638.527344 460.480469 638.160156 464.882812 638.636719 469.183594 C 639.085938 473.246094 634.683594 475.359375 635.457031 479.632812 C 636.097656 483.179688 636.820312 487.417969 632.722656 490.015625 C 633.230469 492.269531 631.621094 494.824219 633.742188 496.859375 C 634.378906 497.46875 634.878906 498.214844 635.445312 498.902344 C 630.816406 502.609375 633.121094 507.757812 632.792969 512.296875 C 632.453125 517.113281 632.621094 521.96875 632.757812 526.808594 C 632.832031 529.320312 631.945312 531.101562 630.511719 533.203125 C 629.023438 535.382812 628.984375 538.53125 631.339844 540.949219 C 633.632812 543.324219 633.578125 546.539062 631.882812 548.660156 C 630.1875 550.773438 630.230469 552.839844 629.679688 555.097656 C 628.949219 558.082031 627.203125 560.824219 625.894531 563.664062 C 622.011719 563.339844 619.976562 567.863281 615.632812 567.148438 C 611.390625 566.453125 606.953125 566.996094 602.59375 566.996094 C 600.179688 564.828125 597.242188 563.273438 597.660156 558.992188 C 597.851562 557.089844 595.921875 554.976562 594.953125 552.960938 C 592.917969 548.753906 590.703125 544.589844 592.316406 540.160156 C 590.5 536.769531 585.785156 535.628906 586.421875 531.917969 C 587.105469 527.980469 583.164062 526.25 583.359375 522.933594 C 583.511719 520.421875 583.238281 518.183594 580.941406 516.664062 C 581.5 512.695312 576.378906 510.839844 577.394531 506.4375 C 578.125 503.253906 574.453125 501.21875 574.230469 497.53125 C 574.003906 493.898438 571.523438 489.980469 568.804688 486.851562 C 569.667969 483.195312 564.664062 481.703125 565.5625 478.03125 C 561.644531 476.070312 563.953125 471.921875 562.441406 469.171875 C 560.921875 466.390625 558.488281 463.976562 557.511719 461.058594 C 556.519531 458.078125 557.910156 454.28125 554.273438 452.226562 C 554.941406 448.300781 550.601562 446.0625 551.109375 441.785156 C 551.441406 438.988281 548.242188 436.507812 548.167969 432.863281 C 548.113281 430.03125 545.417969 427.46875 545.273438 423.914062 C 545.179688 421.664062 542.476562 419.425781 541.972656 416.679688 C 537.867188 414.785156 541.414062 409.976562 538.816406 407.890625 C 535.882812 405.53125 536.757812 402.605469 536.945312 399.941406 C 537.214844 395.984375 532.863281 393.769531 533.796875 389.492188 C 534.5 386.28125 533.933594 382.792969 533.933594 379.59375 Z M 621.070312 248.71875 C 621.519531 247.367188 621.058594 246.882812 619.722656 247.386719 C 619.339844 247.53125 618.898438 247.894531 618.761719 248.265625 C 618.464844 249.046875 618.125 249.929688 618.226562 250.710938 C 618.328125 251.484375 618.964844 252.1875 619.363281 252.925781 C 619.925781 252.425781 620.773438 252.023438 620.992188 251.398438 C 621.273438 250.59375 621.0625 249.617188 621.0625 247.367188 C 623.078125 247.4375 624.039062 246.46875 623.988281 244.519531 C 627.539062 243.789062 629.023438 240.53125 631.402344 238.402344 C 633.375 236.640625 633.527344 234.671875 630.992188 233.035156 C 628.40625 236.773438 622.59375 238.402344 623.96875 244.460938 C 621.953125 244.390625 620.992188 245.359375 621.0625 248.71875 Z M 571.671875 346.160156 C 570.03125 345.835938 569 346.855469 568.84375 348.152344 C 568.574219 350.359375 568.769531 352.632812 568.769531 356.167969 C 568.769531 355.734375 568.9375 355.132812 568.71875 354.921875 C 568.503906 354.707031 567.777344 354.707031 567.496094 354.910156 C 566.539062 355.582031 565.34375 356.414062 567.097656 357.433594 C 567.328125 357.574219 568.199219 356.625 568.769531 354.878906 C 570.414062 355.207031 571.441406 354.183594 571.601562 352.886719 C 571.871094 350.679688 571.671875 348.40625 573.375 340.601562 C 573.058594 340.753906 572.515625 340.847656 572.457031 341.070312 C 572.128906 342.300781 571.992188 343.578125 571.660156 344.808594 C 571.28125 346.183594 571.6875 346.652344 573.019531 346.140625 C 573.40625 345.996094 573.808594 345.632812 573.992188 345.261719 C 574.976562 343.273438 574.636719 340.917969 571.675781 346.160156 Z M 554.1875 314.199219 C 553.765625 314.199219 553.203125 314.035156 552.824219 314.230469 C 550.269531 315.554688 552.414062 321.636719 546.9375 320.050781 C 545.496094 322.789062 543.960938 325.480469 542.695312 328.296875 C 542.414062 328.929688 542.824219 330.171875 543.332031 330.808594 C 544.410156 332.164062 545.757812 333.308594 547.460938 334.996094 C 549.097656 327.34375 555.664062 322.15625 555.933594 311.535156 C 555.375 311.992188 554.722656 312.382812 554.28125 312.941406 C 554.070312 313.199219 554.078125 313.945312 554.296875 314.15625 C 554.511719 314.375 555.257812 314.382812 555.511719 314.171875 C 556.054688 313.714844 556.488281 313.09375 556.828125 312.453125 C 556.886719 312.347656 556.273438 311.875 554.1875 314.207031 Z M 532.085938 277.125 C 534.542969 273.875 537.613281 272.644531 536.902344 268.964844 C 536.679688 267.792969 537.164062 265.953125 538.019531 265.207031 C 540.894531 262.679688 542.175781 259.199219 544.246094 256.238281 C 546.425781 253.109375 549.609375 250.847656 548.53125 246.34375 C 548.402344 245.789062 549.597656 244.925781 550.160156 244.195312 C 551.820312 242.042969 555.179688 240.894531 554.246094 237.222656 C 556.171875 235.265625 558.105469 233.3125 560.066406 231.320312 C 557.277344 228.910156 554.296875 230.34375 551.566406 229.945312 C 548.554688 229.511719 547.570312 233.753906 544.078125 232.964844 C 541.335938 232.339844 538.328125 232.804688 535.441406 232.882812 C 535.085938 232.890625 534.628906 233.421875 534.410156 233.8125 C 532.378906 237.554688 527.9375 234.210938 525.1875 237.230469 C 525.1875 241.601562 524.941406 246.382812 525.257812 251.125 C 525.527344 255.171875 523.492188 259.820312 527.792969 263.042969 C 526.789062 268.046875 531 271.390625 532.085938 277.117188 Z M 568.800781 267.429688 C 571.230469 267.5625 572.621094 267.726562 574.011719 267.683594 C 577.117188 267.597656 581.222656 268.863281 580.53125 263.210938 C 582.90625 260.835938 585.082031 258.207031 587.707031 256.148438 C 590.796875 253.714844 588.167969 250.089844 590.464844 247.097656 C 594.554688 241.761719 596.488281 235.058594 601.652344 230.089844 C 604.445312 227.402344 605.964844 223.238281 608.761719 220.105469 C 609.890625 218.835938 609.085938 215.730469 608.863281 213.484375 C 608.820312 213.082031 607.125 212.34375 606.53125 212.582031 C 603.65625 213.761719 600.746094 214.96875 598.175781 216.671875 C 596.757812 217.613281 595.929688 219.503906 594.945312 221.023438 C 594.222656 222.140625 593.96875 223.820312 592.992188 224.476562 C 587.707031 228.011719 586.605469 234.722656 581.917969 238.707031 C 581.027344 239.464844 580.625 241.082031 580.464844 242.363281 C 580.238281 244.203125 579.640625 245.800781 579.046875 247.539062 C 577.097656 253.21875 572.304688 256.335938 568.8125 260.539062 L 568.8125 267.429688 Z M 611.417969 445.449219 C 610.773438 445.761719 609.507812 446.164062 609.535156 446.390625 C 610.074219 450.320312 605.097656 452.640625 606.539062 456.773438 C 604.230469 459.597656 604.183594 463.679688 601.289062 466.179688 C 600.671875 472.550781 596.074219 478.34375 597.9375 484.96875 C 599.175781 489.371094 601.824219 493.390625 600.722656 498.269531 C 604.15625 500.972656 603.214844 507.113281 608.636719 508.292969 C 609.726562 505.613281 610.261719 502.957031 608.246094 500.449219 C 607.445312 499.453125 606.039062 498.667969 607.871094 497.367188 C 610.296875 495.644531 609.289062 493.050781 609.421875 490.785156 C 609.679688 486.199219 608.582031 481.523438 612.152344 477.351562 C 613.1875 476.148438 613.011719 472.839844 610.765625 470.90625 C 608.101562 468.621094 611.925781 468.292969 612.347656 465.707031 C 612.347656 460.117188 612.359375 453.378906 612.308594 446.644531 C 612.308594 446.273438 611.773438 445.917969 611.410156 445.457031 Z M 578.691406 331.40625 C 580.667969 329.609375 582.957031 328.484375 583.511719 325.132812 C 583.996094 322.207031 586.328125 319.574219 587.921875 316.855469 C 589.089844 314.867188 592.09375 314.230469 592.019531 311.296875 C 591.949219 308.378906 596.003906 307.140625 595.089844 303.859375 C 598.386719 301.027344 598.890625 296.726562 600.730469 293.136719 C 599.234375 287.710938 606.132812 286.75 606.445312 282.476562 C 606.617188 280.132812 609.03125 279.445312 609.28125 277.859375 C 609.59375 275.867188 610.230469 274.484375 611.382812 272.847656 C 613.042969 270.5 613.097656 267.613281 610.050781 263.507812 C 610.289062 268.769531 607.769531 271.289062 604.996094 273.601562 C 602.699219 275.503906 604.027344 278.058594 603.324219 281.730469 C 600.925781 283.644531 597.558594 286.335938 595.011719 288.363281 C 594.75 292.511719 595.734375 295.4375 592.753906 297.605469 C 590.457031 299.261719 588.429688 301.296875 589.007812 304.78125 C 589.195312 305.902344 588.277344 307.355469 587.546875 308.457031 C 586.03125 310.722656 583.152344 311.789062 583.070312 315.417969 C 583.027344 317.253906 579.457031 318.636719 580.433594 321.460938 C 581.621094 324.894531 577.046875 325.960938 577.539062 328.972656 C 577.675781 329.820312 578.292969 330.585938 578.703125 331.417969 Z M 570.335938 395.550781 C 567.878906 395.550781 566.460938 395.492188 565.046875 395.566406 C 563.367188 395.652344 561.777344 398.722656 563.101562 399.84375 C 565.585938 401.953125 566.148438 404.328125 565.882812 407.28125 C 565.75 408.6875 565.707031 410.140625 565.953125 411.519531 C 566.027344 411.921875 567.511719 412.574219 567.808594 412.359375 C 568.945312 411.546875 570.058594 410.5625 570.832031 409.402344 C 572.8125 406.449219 570.082031 401.671875 574.554688 399.578125 C 574.738281 399.492188 574.699219 398.636719 574.554688 398.214844 C 574.257812 397.398438 573.984375 396.160156 573.398438 395.949219 C 572.136719 395.492188 570.6875 395.585938 570.339844 395.550781 Z M 613.800781 439.132812 C 613.476562 439.460938 612.839844 439.851562 612.894531 440.089844 C 613.046875 440.769531 613.484375 441.394531 613.800781 442.039062 C 614.128906 441.710938 614.765625 441.320312 614.707031 441.082031 C 614.554688 440.402344 614.121094 439.777344 613.800781 439.132812 Z M 613.800781 439.132812 " fill-opacity="1" fill-rule="nonzero"/></svg>